<?xml version="1.0" encoding="UTF-8"?>
<svg version="1.1" xmlns="http://www.w3.org/2000/svg" width="180" height="98">
<path d="M0 0 C59.4 0 118.8 0 180 0 C180 32.34 180 64.68 180 98 C120.6 98 61.2 98 0 98 C0 65.66 0 33.32 0 0 Z " fill="#FDFDFD" transform="translate(0,0)"/>
<path d="M0 0 C9.625 -0.25 9.625 -0.25 13 2 C13.47730962 5.72301503 13.1387261 6.79191085 11 10 C11.99 10.33 12.98 10.66 14 11 C13.75 13.875 13.75 13.875 13 17 C9 19 9 19 0 19 C0 12.73 0 6.46 0 0 Z " fill="#474344" transform="translate(5,42)"/>
<path d="M0 0 C1.588125 -0.061875 3.17625 -0.12375 4.8125 -0.1875 C6.15248047 -0.23970703 6.15248047 -0.23970703 7.51953125 -0.29296875 C10 0 10 0 11.8046875 1.359375 C13.50126312 3.68800821 13.34419783 5.17757777 13 8 C12.5875 8.61875 12.175 9.2375 11.75 9.875 C10.74601574 11.96133819 10.74601574 11.96133819 11.7578125 13.8046875 C12.77441871 15.57486195 13.88288646 17.29147341 15 19 C12.75 18.875 12.75 18.875 10 18 C7.8125 15 7.8125 15 6 12 C5.34 11.67 4.68 11.34 4 11 C4 13.64 4 16.28 4 19 C2.68 19 1.36 19 0 19 C0 12.73 0 6.46 0 0 Z " fill="#1C1718" transform="translate(22,42)"/>
<path d="M0 0 C4.88147688 1.22036922 5.46258112 2.52074263 8.25 6.5625 C8.95640625 7.57441406 9.6628125 8.58632813 10.390625 9.62890625 C10.92171875 10.41136719 11.4528125 11.19382812 12 12 C12.33 8.04 12.66 4.08 13 0 C13.99 0 14.98 0 16 0 C16 6.27 16 12.54 16 19 C11.65832032 17.91458008 11.28134039 17.56442894 8.875 14.125 C8.37742188 13.42632812 7.87984375 12.72765625 7.3671875 12.0078125 C6.23502467 10.34515052 5.11579396 8.67369094 4 7 C3.67 10.96 3.34 14.92 3 19 C2.01 19 1.02 19 0 19 C0 12.73 0 6.46 0 0 Z " fill="#2C2729" transform="translate(142,42)"/>
<path d="M0 0 C3.96 0 7.92 0 12 0 C12 0.99 12 1.98 12 3 C9.03 3 6.06 3 3 3 C3 4.65 3 6.3 3 8 C5.31 8 7.62 8 10 8 C10 8.66 10 9.32 10 10 C7.69 10 5.38 10 3 10 C3 11.98 3 13.96 3 16 C5.97 16 8.94 16 12 16 C12 16.99 12 17.98 12 19 C8.04 19 4.08 19 0 19 C0 12.73 0 6.46 0 0 Z " fill="#312D2E" transform="translate(162,42)"/>
<path d="M0 0 C3.875 0.5625 3.875 0.5625 5.875 2.0625 C6.37 2.805 6.37 2.805 6.875 3.5625 C3.40688567 4.71853811 0.50931887 4.5625 -3.125 4.5625 C-5.01988952 6.45738952 -4.30519112 9.13389146 -4.35546875 11.65234375 C-4.2952792 13.8037636 -4.2952792 13.8037636 -2.125 15.5625 C0.08572977 15.80503813 0.08572977 15.80503813 2.5 15.6875 C3.31726563 15.66945313 4.13453125 15.65140625 4.9765625 15.6328125 C5.60304688 15.60960937 6.22953125 15.58640625 6.875 15.5625 C6.875 16.2225 6.875 16.8825 6.875 17.5625 C3.45959721 19.66428633 0.85248585 20.13071226 -3.125 19.5625 C-6.66162065 16.57602034 -8.86887886 14.44072171 -9.5 9.8125 C-8.84036526 4.09566558 -5.90767129 0.22889501 0 0 Z " fill="#2C2829" transform="translate(112.125,41.4375)"/>
<path d="M0 0 C0.66 0.33 1.32 0.66 2 1 C2 1.99 2 2.98 2 4 C-0.64 3.67 -3.28 3.34 -6 3 C-5.28995535 6.27856999 -5.28995535 6.27856999 -2.0625 7.5625 C-1.051875 8.036875 -0.04125 8.51125 1 9 C1.66 9.66 2.32 10.32 3 11 C2.79013448 13.72825177 2.3151619 15.51896341 0.8125 17.8125 C-1.79361661 19.51995571 -3.9599355 19.20267097 -7 19 C-7.66 17.68 -8.32 16.36 -9 15 C-6.36 15.33 -3.72 15.66 -1 16 C-1 14.35 -1 12.7 -1 11 C-1.94875 10.87625 -2.8975 10.7525 -3.875 10.625 C-7 10 -7 10 -9 8 C-9.36023622 5.19015752 -9.38332602 3.61758081 -7.875 1.1875 C-5.18909098 -0.51357571 -3.11342901 -0.26497268 0 0 Z " fill="#262223" transform="translate(55,42)"/>
<path d="M0 0 C3.96 0 7.92 0 12 0 C12 0.99 12 1.98 12 3 C9.03 3 6.06 3 3 3 C3 4.65 3 6.3 3 8 C5.31 8 7.62 8 10 8 C10 8.66 10 9.32 10 10 C7.69 10 5.38 10 3 10 C3 11.98 3 13.96 3 16 C5.64 16 8.28 16 11 16 C11 16.66 11 17.32 11 18 C7.37 18 3.74 18 0 18 C0 12.06 0 6.12 0 0 Z " fill="#282425" transform="translate(90,42)"/>
<path d="M0 0 C1.32 0 2.64 0 4 0 C4 5.28 4 10.56 4 16 C6.31 16 8.62 16 11 16 C11 16.99 11 17.98 11 19 C7.37 19 3.74 19 0 19 C0 12.73 0 6.46 0 0 Z " fill="#3A3637" transform="translate(76,42)"/>
<path d="M0 0 C4.95 0 9.9 0 15 0 C15 0.99 15 1.98 15 3 C13.02 3 11.04 3 9 3 C9 7.95 9 12.9 9 18 C8.01 18 7.02 18 6 18 C6 13.05 6 8.1 6 3 C4.02 3 2.04 3 0 3 C0 2.01 0 1.02 0 0 Z " fill="#231F20" transform="translate(59,42)"/>
<path d="M0 0 C3.3 0 6.6 0 10 0 C9.01 0.66 8.02 1.32 7 2 C7.99 2.66 8.98 3.32 10 4 C9.125 7.875 9.125 7.875 8 9 C6.33382885 9.04063832 4.66611905 9.042721 3 9 C3 7.02 3 5.04 3 3 C2.34 3 1.68 3 1 3 C1 7.95 1 12.9 1 18 C1.66 18 2.32 18 3 18 C3 15.69 3 13.38 3 11 C3.33 11 3.66 11 4 11 C4 13.64 4 16.28 4 19 C2.68 19 1.36 19 0 19 C0 12.73 0 6.46 0 0 Z " fill="#595657" transform="translate(22,42)"/>
<path d="M0 0 C3.3 0 6.6 0 10 0 C9.34 0.66 8.68 1.32 8 2 C8.66 2.33 9.32 2.66 10 3 C9.67 4.65 9.34 6.3 9 8 C7.02 8 5.04 8 3 8 C3 6.35 3 4.7 3 3 C2.34 3 1.68 3 1 3 C1 7.95 1 12.9 1 18 C3.64 18 6.28 18 9 18 C9 18.33 9 18.66 9 19 C6.03 19 3.06 19 0 19 C0 12.73 0 6.46 0 0 Z " fill="#535051" transform="translate(5,42)"/>
<path d="M0 0 C2.0625 1.4375 2.0625 1.4375 4 4 C4.38331255 7.21392834 4.05985341 9.94380896 3 13 C-0.17693041 16.0291662 -2.00282111 16.9261349 -6.375 17.25 C-7.24125 17.1675 -8.1075 17.085 -9 17 C-9 16.01 -9 15.02 -9 14 C-7.865625 13.690625 -6.73125 13.38125 -5.5625 13.0625 C-2.21224901 12.37075469 -2.21224901 12.37075469 -1 11 C-0.95372155 9.33397597 -0.96213099 7.66623639 -1 6 C-1.03786901 4.33376361 -1.04627845 2.66602403 -1 1 C-0.67 0.67 -0.34 0.34 0 0 Z " fill="#3E88E4" transform="translate(135,44)"/>
<path d="M0 0 C-0.33 0.99 -0.66 1.98 -1 3 C-4.5625 4.1875 -4.5625 4.1875 -8 5 C-8 8.3 -8 11.6 -8 15 C-9.32 15 -10.64 15 -12 15 C-13.21260877 11.36217368 -13.39544552 8.82264001 -13 5 C-9.24710838 -0.51205957 -6.17887554 -0.52363352 0 0 Z " fill="#2E7FE1" transform="translate(133,42)"/>
<path d="M0 0 C0.66 0 1.32 0 2 0 C2 1.65 2 3.3 2 5 C3.98 5 5.96 5 8 5 C8 5.66 8 6.32 8 7 C6.02 7 4.04 7 2 7 C2 8.98 2 10.96 2 13 C3.98 13 5.96 13 8 13 C8.33 13.66 8.66 14.32 9 15 C6.03 15 3.06 15 0 15 C0 10.05 0 5.1 0 0 Z " fill="#151011" transform="translate(6,45)"/>
<path d="M0 0 C0.33 0 0.66 0 1 0 C1.33 4.62 1.66 9.24 2 14 C5.3 14 8.6 14 12 14 C12 14.99 12 15.98 12 17 C8.04 17 4.08 17 0 17 C0 11.39 0 5.78 0 0 Z " fill="#312E2F" transform="translate(162,44)"/>
<path d="M0 0 C0.99 0 1.98 0 3 0 C3 5.94 3 11.88 3 18 C2.01 18 1.02 18 0 18 C0 12.06 0 6.12 0 0 Z " fill="#160F11" transform="translate(39,42)"/>
<path d="M0 0 C0.99 0 1.98 0 3 0 C3 6.27 3 12.54 3 19 C2.01 19 1.02 19 0 19 C0 12.73 0 6.46 0 0 Z " fill="#373233" transform="translate(155,42)"/>
<path d="M0 0 C3.3 0 6.6 0 10 0 C10 0.33 10 0.66 10 1 C7.36 1 4.72 1 2 1 C2 2.98 2 4.96 2 7 C4.31 7 6.62 7 9 7 C9 7.66 9 8.32 9 9 C6.69 9 4.38 9 2 9 C2 10.98 2 12.96 2 15 C1.67 15 1.34 15 1 15 C-0.32972073 10.01354726 -0.06829634 5.12222534 0 0 Z " fill="#1D1819" transform="translate(91,43)"/>
<path d="M0 0 C0.66 0 1.32 0 2 0 C2 1.98 2 3.96 2 6 C3.65 6 5.3 6 7 6 C7 6.66 7 7.32 7 8 C5.35 8 3.7 8 2 8 C2 10.31 2 12.62 2 15 C1.34 15 0.68 15 0 15 C0 10.05 0 5.1 0 0 Z " fill="#1A1516" transform="translate(23,45)"/>
<path d="M0 0 C3.8134551 0.5447793 5.41978992 2.2418444 8 5 C8.33 5 8.66 5 9 5 C9 6.65 9 8.3 9 10 C8.01 10.495 8.01 10.495 7 11 C6.0158875 9.73299277 5.03788503 8.4612381 4.0625 7.1875 C3.51722656 6.47980469 2.97195312 5.77210937 2.41015625 5.04296875 C1 3 1 3 0 0 Z " fill="#241F20" transform="translate(147,49)"/>
<path d="M0 0 C1.9375 0.5 1.9375 0.5 4 2 C4.68790422 4.69658452 4.81946464 7.2017019 5 10 C3.68 10 2.36 10 1 10 C-0.1577506 6.52674819 -0.06866652 3.63932552 0 0 Z " fill="#458CE4" transform="translate(120,47)"/>
<path d="M0 0 C0.66 0.33 1.32 0.66 2 1 C0.125 4.875 0.125 4.875 -1 6 C-2.99958364 6.04080783 -5.00045254 6.04254356 -7 6 C-7.66 4.68 -8.32 3.36 -9 2 C-6.36 2 -3.72 2 -1 2 C-0.67 1.34 -0.34 0.68 0 0 Z " fill="#262222" transform="translate(55,55)"/>
<path d="M0 0 C1.65 0 3.3 0 5 0 C5.625 1.875 5.625 1.875 6 4 C5.34 4.66 4.68 5.32 4 6 C2.68 6 1.36 6 0 6 C0 4.02 0 2.04 0 0 Z " fill="#F0F0F0" transform="translate(26,45)"/>
<path d="M0 0 C1.98 0 3.96 0 6 0 C5.67 1.65 5.34 3.3 5 5 C3.35 5 1.7 5 0 5 C0 3.35 0 1.7 0 0 Z " fill="#F9F9F9" transform="translate(9,53)"/>
<path d="M0 0 C2.91517292 1.07401108 4.77810176 1.77810176 7 4 C6.625 6.125 6.625 6.125 6 8 C5.01 8 4.02 8 3 8 C3 6.68 3 5.36 3 4 C1.68 3.67 0.36 3.34 -1 3 C-0.67 2.01 -0.34 1.02 0 0 Z " fill="#3C3839" transform="translate(51,49)"/>
<path d="M0 0 C1.98 0 3.96 0 6 0 C5.67 1.65 5.34 3.3 5 5 C3.35 5 1.7 5 0 5 C0 3.35 0 1.7 0 0 Z " fill="#F4F3F3" transform="translate(9,45)"/>
<path d="M0 0 C6.15234375 -0.09765625 6.15234375 -0.09765625 8 0 C9 1 9 1 9.0625 3.5625 C9.041875 4.366875 9.02125 5.17125 9 6 C8.01 6.33 7.02 6.66 6 7 C6 5.35 6 3.7 6 2 C3.03 1.505 3.03 1.505 0 1 C0 0.67 0 0.34 0 0 Z " fill="#1A1616" transform="translate(9,43)"/>
<path d="M0 0 C7.50769231 -0.36923077 7.50769231 -0.36923077 10 1.5 C10.495 2.2425 10.495 2.2425 11 3 C7.52176885 4.15941038 5.54104422 3.70820884 2 3 C2 2.34 2 1.68 2 1 C1.34 0.67 0.68 0.34 0 0 Z " fill="#343031" transform="translate(108,42)"/>
<path d="M0 0 C5.75 -0.125 5.75 -0.125 8 1 C8 1.99 8 2.98 8 4 C5.03 3.67 2.06 3.34 -1 3 C-0.67 2.01 -0.34 1.02 0 0 Z " fill="#312D2E" transform="translate(49,42)"/>
<path d="M0 0 C2.97 0 5.94 0 9 0 C9 0.66 9 1.32 9 2 C6.69 2 4.38 2 2 2 C2 3.98 2 5.96 2 8 C1.67 8 1.34 8 1 8 C0.67 5.36 0.34 2.72 0 0 Z " fill="#1C1718" transform="translate(163,50)"/>
<path d="M0 0 C0.66 0 1.32 0 2 0 C2 1.65 2 3.3 2 5 C3.98 5 5.96 5 8 5 C8 5.66 8 6.32 8 7 C5.66705225 7.04241723 3.33297433 7.04092937 1 7 C0 6 0 6 -0.0625 2.9375 C-0.041875 1.968125 -0.02125 0.99875 0 0 Z " fill="#1E181A" transform="translate(6,45)"/>
<path d="M0 0 C2.40072955 2.88087546 4.47291037 5.56404834 6 9 C3.5625 8.625 3.5625 8.625 1 8 C-0.35439668 5.29120665 -0.06501451 2.99066732 0 0 Z " fill="#383334" transform="translate(31,52)"/>
<path d="M0 0 C2.97 0 5.94 0 9 0 C7.515 1.485 7.515 1.485 6 3 C5.01 3 4.02 3 3 3 C3 4.98 3 6.96 3 9 C2.67 9 2.34 9 2 9 C2 7.02 2 5.04 2 3 C1.34 3 0.68 3 0 3 C0 2.01 0 1.02 0 0 Z " fill="#4B4849" transform="translate(23,42)"/>
<path d="M0 0 C1.32 0 2.64 0 4 0 C4 0.66 4 1.32 4 2 C0.5980513 4.09350689 -2.05272412 4.17942163 -6 4 C-5.34 3.34 -4.68 2.68 -4 2 C-2.68 2 -1.36 2 0 2 C0 1.34 0 0.68 0 0 Z " fill="#3F3B3C" transform="translate(115,57)"/>
<path d="M0 0 C0.99 0.66 1.98 1.32 3 2 C1.02 2.99 1.02 2.99 -1 4 C-1 5.65 -1 7.3 -1 9 C-1.99 7.68 -2.98 6.36 -4 5 C-3.34 5 -2.68 5 -2 5 C-1.7834375 4.0409375 -1.7834375 4.0409375 -1.5625 3.0625 C-1 1 -1 1 0 0 Z " fill="#292526" transform="translate(32,48)"/>
<path d="M0 0 C2.64 0 5.28 0 8 0 C7.67 0.99 7.34 1.98 7 3 C5.35 3 3.7 3 2 3 C2 2.34 2 1.68 2 1 C1.34 0.67 0.68 0.34 0 0 Z " fill="#448BE4" transform="translate(125,42)"/>
<path d="M0 0 C2.97 0.33 5.94 0.66 9 1 C4.82091936 3.08954032 4.19589427 3.16552619 0 2 C0 1.34 0 0.68 0 0 Z " fill="#1D1A1A" transform="translate(106,57)"/>
</svg>
