<?xml version="1.0" encoding="UTF-8"?>
<svg version="1.1" xmlns="http://www.w3.org/2000/svg" width="896" height="307">
<path d="M0 0 C295.68 0 591.36 0 896 0 C896 101.31 896 202.62 896 307 C600.32 307 304.64 307 0 307 C0 205.69 0 104.38 0 0 Z " fill="#0D1117" transform="translate(0,0)"/>
<path d="M0 0 C273.9 0 547.8 0 830 0 C830 17.16 830 34.32 830 52 C556.1 52 282.2 52 0 52 C0 34.84 0 17.68 0 0 Z " fill="#151B23" transform="translate(36,229)"/>
<path d="M0 0 C273.9 0 547.8 0 830 0 C830 17.16 830 34.32 830 52 C556.1 52 282.2 52 0 52 C0 34.84 0 17.68 0 0 Z " fill="#151B23" transform="translate(36,121)"/>
<path d="M0 0 C263.34 0 526.68 0 798 0 C798 0.99 798 1.98 798 3 C534.66 3 271.32 3 0 3 C0 2.01 0 1.02 0 0 Z " fill="#151B23" transform="translate(68,0)"/>
<path d="M0 0 C1.21236328 0.04060547 1.21236328 0.04060547 2.44921875 0.08203125 C3.06410156 0.11683594 3.67898437 0.15164062 4.3125 0.1875 C4.39321788 2.97974073 4.45285408 5.76966566 4.5 8.5625 C4.53770508 9.75359375 4.53770508 9.75359375 4.57617188 10.96875 C4.60254405 13.04336148 4.46736462 15.11850865 4.3125 17.1875 C1.22361478 19.24675681 0.60314073 19.4265374 -2.875 19.3125 C-4.133125 19.27125 -5.39125 19.23 -6.6875 19.1875 C-6.6875 18.1975 -6.6875 17.2075 -6.6875 16.1875 C-3.2225 15.6925 -3.2225 15.6925 0.3125 15.1875 C0.6425 14.1975 0.9725 13.2075 1.3125 12.1875 C-0.0796875 12.5278125 -0.0796875 12.5278125 -1.5 12.875 C-4.6875 13.1875 -4.6875 13.1875 -6.5625 12.1875 C-8.29928961 9.09987402 -8.05892345 6.6541189 -7.6875 3.1875 C-5.44616073 0.07808647 -3.72728723 -0.16205597 0 0 Z " fill="#D0E3F1" transform="translate(88.6875,37.8125)"/>
<path d="M0 0 C1.32 0 2.64 0 4 0 C4.33 4.29 4.66 8.58 5 13 C6.98 13 8.96 13 11 13 C11 8.71 11 4.42 11 0 C12.32 0 13.64 0 15 0 C15.05402274 2.10388569 15.09280256 4.20816714 15.125 6.3125 C15.14820313 7.48425781 15.17140625 8.65601563 15.1953125 9.86328125 C15 13 15 13 13 16 C10.0039716 17.0179556 7.14858025 17.24047771 4 17 C1.4375 15.3125 1.4375 15.3125 0 12 C-0.30832606 7.97608367 -0.23117879 4.0263639 0 0 Z " fill="#E6EDEC" transform="translate(37,34)"/>
<path d="M0 0 C0.66 0 1.32 0 2 0 C2 2.64 2 5.28 2 8 C2.99 7.67 3.98 7.34 5 7 C5.33 4.69 5.66 2.38 6 0 C7.62463842 -0.05395478 9.24978541 -0.09277195 10.875 -0.125 C12.23238281 -0.15980469 12.23238281 -0.15980469 13.6171875 -0.1953125 C16 0 16 0 18 2 C18.25 4.5 18.25 4.5 18 7 C17.34 7.66 16.68 8.32 16 9 C14.68 9 13.36 9 12 9 C12 10.32 12 11.64 12 13 C11.01 13 10.02 13 9 13 C9 11.68 9 10.36 9 9 C7.700625 9.020625 6.40125 9.04125 5.0625 9.0625 C3.70834367 9.08399454 2.35243917 9.07148199 1 9 C0 8 0 8 -0.09765625 6.15234375 C-0.06510417 4.1015625 -0.03255208 2.05078125 0 0 Z " fill="#BCB6A7" transform="translate(170,198)"/>
<path d="M0 0 C0.99128906 -0.00257812 1.98257813 -0.00515625 3.00390625 -0.0078125 C5.4375 0.125 5.4375 0.125 6.4375 1.125 C6.57865161 3.79558851 6.47997107 6.44932238 6.4375 9.125 C4.47946493 9.17889087 2.52101091 9.21774217 0.5625 9.25 C-0.52804688 9.27320312 -1.61859375 9.29640625 -2.7421875 9.3203125 C-5.5625 9.125 -5.5625 9.125 -7.5625 7.125 C-7.6875 4 -7.6875 4 -7.5625 1.125 C-4.93920316 -0.18664842 -2.92551375 -0.00762846 0 0 Z " fill="#56585C" transform="translate(109.5625,89.875)"/>
<path d="M0 0 C0.8146875 0.00257813 1.629375 0.00515625 2.46875 0.0078125 C3.2834375 0.00523437 4.098125 0.00265625 4.9375 0 C6.96875 0.1328125 6.96875 0.1328125 7.96875 1.1328125 C8.0666557 2.63019374 8.09849864 4.13224142 8.09375 5.6328125 C8.09632813 6.4475 8.09890625 7.2621875 8.1015625 8.1015625 C7.96875 10.1328125 7.96875 10.1328125 6.96875 11.1328125 C5.47136876 11.2307182 3.96932108 11.26256114 2.46875 11.2578125 C1.6540625 11.26039063 0.839375 11.26296875 0 11.265625 C-2.03125 11.1328125 -2.03125 11.1328125 -3.03125 10.1328125 C-3.1291557 8.63543126 -3.16099864 7.13338358 -3.15625 5.6328125 C-3.15882813 4.818125 -3.16140625 4.0034375 -3.1640625 3.1640625 C-2.98414019 0.4123095 -2.751753 0.17992231 0 0 Z " fill="#747B84" transform="translate(842.03125,242.8671875)"/>
<path d="M0 0 C0.8146875 0.00257813 1.629375 0.00515625 2.46875 0.0078125 C3.2834375 0.00523437 4.098125 0.00265625 4.9375 0 C6.96875 0.1328125 6.96875 0.1328125 7.96875 1.1328125 C8.0666557 2.63019374 8.09849864 4.13224142 8.09375 5.6328125 C8.09632813 6.4475 8.09890625 7.2621875 8.1015625 8.1015625 C7.96875 10.1328125 7.96875 10.1328125 6.96875 11.1328125 C5.47136876 11.2307182 3.96932108 11.26256114 2.46875 11.2578125 C1.6540625 11.26039063 0.839375 11.26296875 0 11.265625 C-2.03125 11.1328125 -2.03125 11.1328125 -3.03125 10.1328125 C-3.1291557 8.63543126 -3.16099864 7.13338358 -3.15625 5.6328125 C-3.15882813 4.818125 -3.16140625 4.0034375 -3.1640625 3.1640625 C-2.98414019 0.4123095 -2.751753 0.17992231 0 0 Z " fill="#747B84" transform="translate(842.03125,134.8671875)"/>
<path d="M0 0 C3.375 -0.125 3.375 -0.125 7 0 C9 2 9 2 9.1953125 4.6015625 C9.17210938 5.59929688 9.14890625 6.59703125 9.125 7.625 C9.10695313 8.62789062 9.08890625 9.63078125 9.0703125 10.6640625 C9.03550781 11.82035156 9.03550781 11.82035156 9 13 C7.35425434 13.02688151 5.70838587 13.04634123 4.0625 13.0625 C3.14597656 13.07410156 2.22945313 13.08570313 1.28515625 13.09765625 C-1 13 -1 13 -2 12 C-2.125 9 -2.125 9 -2 6 C-1 5 -1 5 2.0625 4.9375 C3.5165625 4.9684375 3.5165625 4.9684375 5 5 C5 4.34 5 3.68 5 3 C3.02 3 1.04 3 -1 3 C-0.67 2.01 -0.34 1.02 0 0 Z " fill="#E5EDF0" transform="translate(69,38)"/>
<path d="M0 0 C2 2 2 2 2.125 4.625 C2.08375 5.40875 2.0425 6.1925 2 7 C-0.64 7 -3.28 7 -6 7 C-5.67 7.66 -5.34 8.32 -5 9 C-2.67843403 9.40729228 -0.3431213 9.74438677 2 10 C1.67 10.99 1.34 11.98 1 13 C-5.27586207 13.48275862 -5.27586207 13.48275862 -8.4375 11.375 C-10.44814771 8.31881548 -10.53520313 6.59350675 -10 3 C-7.71933282 -1.02470679 -4.21240995 -0.38294636 0 0 Z " fill="#E8EFF1" transform="translate(106,38)"/>
<path d="M0 0 C0.99 0 1.98 0 3 0 C3 3.96 3 7.92 3 12 C1.39125 12.04125 -0.2175 12.0825 -1.875 12.125 C-2.77992188 12.14820313 -3.68484375 12.17140625 -4.6171875 12.1953125 C-7 12 -7 12 -9 10 C-9.25 7.5 -9.25 7.5 -9 5 C-8.34 4.34 -7.68 3.68 -7 3 C-2.44444444 3.55555556 -2.44444444 3.55555556 -1 5 C-0.67 3.35 -0.34 1.7 0 0 Z " fill="#6C6C6F" transform="translate(367,195)"/>
<path d="M0 0 C0.99 0 1.98 0 3 0 C3 0.99 3 1.98 3 3 C4.65 3.33 6.3 3.66 8 4 C8 6.64 8 9.28 8 12 C7.34 12 6.68 12 6 12 C6 9.69 6 7.38 6 5 C4.68 5 3.36 5 2 5 C2 7.31 2 9.62 2 12 C0.00045254 12.04254356 -2.00041636 12.04080783 -4 12 C-6.09722394 9.90277606 -5.86940109 5.90285764 -6 3 C-5.67 2.34 -5.34 1.68 -5 1 C-4.34 1 -3.68 1 -3 1 C-3 1.66 -3 2.32 -3 3 C-2.01 3 -1.02 3 0 3 C0 2.01 0 1.02 0 0 Z " fill="#29344A" transform="translate(325,195)"/>
<path d="M0 0 C0.99 0 1.98 0 3 0 C3 0.99 3 1.98 3 3 C4.65 3.33 6.3 3.66 8 4 C8 6.64 8 9.28 8 12 C7.67 12 7.34 12 7 12 C7 9.69 7 7.38 7 5 C5.68 5 4.36 5 3 5 C3 7.31 3 9.62 3 12 C0.69 12 -1.62 12 -4 12 C-6.21538462 5.6 -6.21538462 5.6 -5.125 2.5625 C-4.75375 2.046875 -4.3825 1.53125 -4 1 C-3.67 1.66 -3.34 2.32 -3 3 C-2.01 3 -1.02 3 0 3 C0 2.01 0 1.02 0 0 Z " fill="#31303C" transform="translate(93,195)"/>
<path d="M0 0 C0.99 0 1.98 0 3 0 C3 0.99 3 1.98 3 3 C4.65 3.33 6.3 3.66 8 4 C8 6.64 8 9.28 8 12 C7.34 12 6.68 12 6 12 C6 9.69 6 7.38 6 5 C4.68 5 3.36 5 2 5 C2 7.31 2 9.62 2 12 C0.00045254 12.04254356 -2.00041636 12.04080783 -4 12 C-6.09722394 9.90277606 -5.86940109 5.90285764 -6 3 C-5.67 2.34 -5.34 1.68 -5 1 C-4.34 1 -3.68 1 -3 1 C-3 1.66 -3 2.32 -3 3 C-2.01 3 -1.02 3 0 3 C0 2.01 0 1.02 0 0 Z " fill="#29344A" transform="translate(228,87)"/>
<path d="M0 0 C0.66 0 1.32 0 2 0 C2.33 2.31 2.66 4.62 3 7 C3.66 7 4.32 7 5 7 C5.33 4.69 5.66 2.38 6 0 C8.97 0 11.94 0 15 0 C14 2 14 2 12 3 C13.32 3.66 14.64 4.32 16 5 C15.67 6.32 15.34 7.64 15 9 C12.68756208 9.02685412 10.3750373 9.04632841 8.0625 9.0625 C6.77472656 9.07410156 5.48695313 9.08570313 4.16015625 9.09765625 C1 9 1 9 0 8 C-0.14115161 5.32941149 -0.04247107 2.67567762 0 0 Z " fill="#283245" transform="translate(289,198)"/>
<path d="M0 0 C0.33 0.99 0.66 1.98 1 3 C-0.32 3.33 -1.64 3.66 -3 4 C-1.35 4.99 0.3 5.98 2 7 C1.125 11.875 1.125 11.875 0 13 C-2.67058851 13.14115161 -5.32432238 13.04247107 -8 13 C-8 12.01 -8 11.02 -8 10 C-6.02 10 -4.04 10 -2 10 C-2 9.34 -2 8.68 -2 8 C-2.804375 7.855625 -3.60875 7.71125 -4.4375 7.5625 C-7 7 -7 7 -8 6 C-8.04063832 4.33382885 -8.042721 2.66611905 -8 1 C-5.29120665 -0.35439668 -2.99066732 -0.06501451 0 0 Z " fill="#D7DEE0" transform="translate(63,38)"/>
<path d="M0 0 C0.66 0 1.32 0 2 0 C2 0.66 2 1.32 2 2 C4.86964055 2.73790757 6.75795825 3.0506599 9.6875 2.4375 C10.8321875 2.2209375 10.8321875 2.2209375 12 2 C12.66 2.66 13.32 3.32 14 4 C13.625 6.125 13.625 6.125 13 8 C8.88857686 8.86556277 5.19161906 9 1 9 C-1.125 2.25 -1.125 2.25 0 0 Z " fill="#1F212B" transform="translate(78,249)"/>
<path d="M0 0 C0.66 0 1.32 0 2 0 C2 0.66 2 1.32 2 2 C4.86964055 2.73790757 6.75795825 3.0506599 9.6875 2.4375 C10.8321875 2.2209375 10.8321875 2.2209375 12 2 C12.66 2.66 13.32 3.32 14 4 C13.625 6.125 13.625 6.125 13 8 C8.88857686 8.86556277 5.19161906 9 1 9 C-1.125 2.25 -1.125 2.25 0 0 Z " fill="#1F212B" transform="translate(78,141)"/>
<path d="M0 0 C1.134375 0.020625 2.26875 0.04125 3.4375 0.0625 C3.49141993 1.85383978 3.53025571 3.64563899 3.5625 5.4375 C3.58570313 6.43523437 3.60890625 7.43296875 3.6328125 8.4609375 C3.4375 11.0625 3.4375 11.0625 1.4375 13.0625 C-1.6875 13.1875 -1.6875 13.1875 -4.5625 13.0625 C-4.5625 12.4025 -4.5625 11.7425 -4.5625 11.0625 C-2.5825 11.0625 -0.6025 11.0625 1.4375 11.0625 C1.4375 10.4025 1.4375 9.7425 1.4375 9.0625 C0.633125 9.083125 -0.17125 9.10375 -1 9.125 C-3.5625 9.0625 -3.5625 9.0625 -4.5625 8.0625 C-4.6875 4.5625 -4.6875 4.5625 -4.5625 1.0625 C-3.5625 0.0625 -3.5625 0.0625 0 0 Z " fill="#B6B9B5" transform="translate(267.5625,197.9375)"/>
<path d="M0 0 C1.134375 0.020625 2.26875 0.04125 3.4375 0.0625 C3.49141993 1.85383978 3.53025571 3.64563899 3.5625 5.4375 C3.58570313 6.43523437 3.60890625 7.43296875 3.6328125 8.4609375 C3.4375 11.0625 3.4375 11.0625 1.4375 13.0625 C-1.6875 13.1875 -1.6875 13.1875 -4.5625 13.0625 C-4.5625 12.4025 -4.5625 11.7425 -4.5625 11.0625 C-2.5825 11.0625 -0.6025 11.0625 1.4375 11.0625 C1.4375 10.4025 1.4375 9.7425 1.4375 9.0625 C0.633125 9.083125 -0.17125 9.10375 -1 9.125 C-3.5625 9.0625 -3.5625 9.0625 -4.5625 8.0625 C-4.6875 4.5625 -4.6875 4.5625 -4.5625 1.0625 C-3.5625 0.0625 -3.5625 0.0625 0 0 Z " fill="#B6B9B5" transform="translate(315.5625,89.9375)"/>
<path d="M0 0 C0.66 0 1.32 0 2 0 C2 0.66 2 1.32 2 2 C2.66 2.33 3.32 2.66 4 3 C3.34 3 2.68 3 2 3 C2 5.31 2 7.62 2 10 C2.66 10.33 3.32 10.66 4 11 C0.04 11 -3.92 11 -8 11 C-8 10.34 -8 9.68 -8 9 C-7.01 8.67 -6.02 8.34 -5 8 C-5.99 7.34 -6.98 6.68 -8 6 C-8 4.68 -8 3.36 -8 2 C-5.36 2 -2.72 2 0 2 C0 1.34 0 0.68 0 0 Z " fill="#322F37" transform="translate(133,196)"/>
<path d="M0 0 C2.9375 0.8125 2.9375 0.8125 6 2 C6.33 2.99 6.66 3.98 7 5 C4.09064546 6.62737868 1.68626361 7.34972896 -1.625 7.6875 C-2.40101563 7.77386719 -3.17703125 7.86023438 -3.9765625 7.94921875 C-6 8 -6 8 -8 7 C-8 5.35 -8 3.7 -8 2 C-2.25 0.875 -2.25 0.875 0 2 C0 1.34 0 0.68 0 0 Z " fill="#674648" transform="translate(215,142)"/>
<path d="M0 0 C0.33 0.66 0.66 1.32 1 2 C2.98 2 4.96 2 7 2 C7 4.97 7 7.94 7 11 C4.69 11 2.38 11 0 11 C-2.21538462 4.6 -2.21538462 4.6 -1.125 1.5625 C-0.75375 1.046875 -0.3825 0.53125 0 0 Z " fill="#646260" transform="translate(406,196)"/>
<path d="M0 0 C1.98 0 3.96 0 6 0 C8 2 8 2 8.125 5.125 C8.08375 6.07375 8.0425 7.0225 8 8 C6.02 8.33 4.04 8.66 2 9 C2 10.32 2 11.64 2 13 C1.34 13 0.68 13 0 13 C0 8.71 0 4.42 0 0 Z " fill="#A3B3BD" transform="translate(395,198)"/>
<path d="M0 0 C1.98 0 3.96 0 6 0 C8 2 8 2 8.25 4.5 C8 7 8 7 6 9 C4.68 9 3.36 9 2 9 C2 10.32 2 11.64 2 13 C1.34 13 0.68 13 0 13 C0 8.71 0 4.42 0 0 Z " fill="#BCB6A7" transform="translate(372,198)"/>
<path d="M0 0 C1.98 0 3.96 0 6 0 C8 2 8 2 8.25 4.5 C8 7 8 7 6 9 C4.68 9 3.36 9 2 9 C2 10.32 2 11.64 2 13 C1.34 13 0.68 13 0 13 C0 8.71 0 4.42 0 0 Z " fill="#BCB6A7" transform="translate(190,198)"/>
<path d="M0 0 C0.66 0 1.32 0 2 0 C2 3.96 2 7.92 2 12 C-0.33294775 12.04241723 -2.66702567 12.04092937 -5 12 C-6 11 -6 11 -6.0625 7.4375 C-6.041875 6.303125 -6.02125 5.16875 -6 4 C-4.35 3.67 -2.7 3.34 -1 3 C-0.67 2.01 -0.34 1.02 0 0 Z " fill="#B8B9AF" transform="translate(397,87)"/>
<path d="M0 0 C0.66 0 1.32 0 2 0 C2 3.96 2 7.92 2 12 C0.02 12 -1.96 12 -4 12 C-6 10 -6 10 -6.25 7.5 C-6 5 -6 5 -4 3 C-2.68 3 -1.36 3 0 3 C0 2.01 0 1.02 0 0 Z " fill="#B7C2BD" transform="translate(236,195)"/>
<path d="M0 0 C0.66 0 1.32 0 2 0 C2 0.99 2 1.98 2 3 C2.804375 3.144375 3.60875 3.28875 4.4375 3.4375 C7 4 7 4 8 5 C8.1875 7.4375 8.1875 7.4375 8 10 C7.34 10.66 6.68 11.32 6 12 C4.02 12 2.04 12 0 12 C0 8.04 0 4.08 0 0 Z " fill="#BCB7A9" transform="translate(133,87)"/>
<path d="M0 0 C1.97909398 -0.02686553 3.95828971 -0.04633375 5.9375 -0.0625 C7.03964844 -0.07410156 8.14179688 -0.08570312 9.27734375 -0.09765625 C12 0 12 0 13 1 C13.14115161 3.67058851 13.04247107 6.32432238 13 9 C12.34 9 11.68 9 11 9 C11 6.69 11 4.38 11 2 C10.01 2 9.02 2 8 2 C8 4.31 8 6.62 8 9 C7.34 9 6.68 9 6 9 C6 6.69 6 4.38 6 2 C4.68 2 3.36 2 2 2 C2 4.31 2 6.62 2 9 C1.34 9 0.68 9 0 9 C0 6.03 0 3.06 0 0 Z " fill="#B2BDB9" transform="translate(357,90)"/>
<path d="M0 0 C1.97909398 -0.02686553 3.95828971 -0.04633375 5.9375 -0.0625 C7.03964844 -0.07410156 8.14179688 -0.08570312 9.27734375 -0.09765625 C12 0 12 0 13 1 C13.14115161 3.67058851 13.04247107 6.32432238 13 9 C12.34 9 11.68 9 11 9 C11 6.69 11 4.38 11 2 C10.01 2 9.02 2 8 2 C8 4.31 8 6.62 8 9 C7.34 9 6.68 9 6 9 C6 6.69 6 4.38 6 2 C4.68 2 3.36 2 2 2 C2 4.31 2 6.62 2 9 C1.34 9 0.68 9 0 9 C0 6.03 0 3.06 0 0 Z " fill="#B2BDB9" transform="translate(342,90)"/>
<path d="M0 0 C2.5625 0.1875 2.5625 0.1875 4.5625 2.1875 C4.8125 4.6875 4.8125 4.6875 4.5625 7.1875 C2.5625 9.1875 2.5625 9.1875 0 9.375 C-2.4375 9.1875 -2.4375 9.1875 -3.4375 8.1875 C-3.5625 4.6875 -3.5625 4.6875 -3.4375 1.1875 C-2.4375 0.1875 -2.4375 0.1875 0 0 Z " fill="#B5BCB8" transform="translate(146.4375,197.8125)"/>
<path d="M0 0 C4.55555556 0.55555556 4.55555556 0.55555556 6 2 C6.125 5 6.125 5 6 8 C5 9 5 9 2.5625 9.1875 C0 9 0 9 -2 7 C-2.25 4.5 -2.25 4.5 -2 2 C-1.34 1.34 -0.68 0.68 0 0 Z " fill="#A1B6C3" transform="translate(387,198)"/>
<path d="M0 0 C0.66 0 1.32 0 2 0 C2 2.64 2 5.28 2 8 C2.99 7.67 3.98 7.34 5 7 C5.33 4.69 5.66 2.38 6 0 C7.32 0 8.64 0 10 0 C10 4.29 10 8.58 10 13 C9.67 11.68 9.34 10.36 9 9 C7.700625 9.020625 6.40125 9.04125 5.0625 9.0625 C3.70834367 9.08399454 2.35243917 9.07148199 1 9 C0 8 0 8 -0.09765625 6.15234375 C-0.06510417 4.1015625 -0.03255208 2.05078125 0 0 Z " fill="#81878C" transform="translate(170,198)"/>
<path d="M0 0 C4.55555556 0.55555556 4.55555556 0.55555556 6 2 C6.125 5 6.125 5 6 8 C5 9 5 9 2.5625 9.1875 C0 9 0 9 -2 7 C-2.25 4.5 -2.25 4.5 -2 2 C-1.34 1.34 -0.68 0.68 0 0 Z " fill="#A1B6C3" transform="translate(334,90)"/>
<path d="M0 0 C4.55555556 0.55555556 4.55555556 0.55555556 6 2 C6.1875 4.4375 6.1875 4.4375 6 7 C4 9 4 9 1.375 9.125 C0.59125 9.08375 -0.1925 9.0425 -1 9 C-1.625 5.625 -1.625 5.625 -2 2 C-1.34 1.34 -0.68 0.68 0 0 Z " fill="#B7BEB7" transform="translate(417,198)"/>
<path d="M0 0 C4.55555556 0.55555556 4.55555556 0.55555556 6 2 C6.1875 4.4375 6.1875 4.4375 6 7 C4 9 4 9 1.375 9.125 C0.59125 9.08375 -0.1925 9.0425 -1 9 C-1.625 5.625 -1.625 5.625 -2 2 C-1.34 1.34 -0.68 0.68 0 0 Z " fill="#B7BEB7" transform="translate(277,90)"/>
<path d="M0 0 C4.55555556 0.55555556 4.55555556 0.55555556 6 2 C6.1875 4.4375 6.1875 4.4375 6 7 C4 9 4 9 1.375 9.125 C0.59125 9.08375 -0.1925 9.0425 -1 9 C-1.625 5.625 -1.625 5.625 -2 2 C-1.34 1.34 -0.68 0.68 0 0 Z " fill="#B7BEB7" transform="translate(259,90)"/>
<path d="M0 0 C4.55555556 0.55555556 4.55555556 0.55555556 6 2 C6.1875 4.4375 6.1875 4.4375 6 7 C4 9 4 9 1.375 9.125 C0.59125 9.08375 -0.1925 9.0425 -1 9 C-1.625 5.625 -1.625 5.625 -2 2 C-1.34 1.34 -0.68 0.68 0 0 Z " fill="#B7BEB7" transform="translate(86,90)"/>
<path d="M0 0 C4.55555556 0.55555556 4.55555556 0.55555556 6 2 C6.1875 4.4375 6.1875 4.4375 6 7 C5.34 7.66 4.68 8.32 4 9 C-0.55555556 8.44444444 -0.55555556 8.44444444 -2 7 C-2.1875 4.5625 -2.1875 4.5625 -2 2 C-1.34 1.34 -0.68 0.68 0 0 Z " fill="#B5C7CA" transform="translate(201,198)"/>
<path d="M0 0 C4.55555556 0.55555556 4.55555556 0.55555556 6 2 C6.1875 4.4375 6.1875 4.4375 6 7 C5.34 7.66 4.68 8.32 4 9 C-0.55555556 8.44444444 -0.55555556 8.44444444 -2 7 C-2.1875 4.5625 -2.1875 4.5625 -2 2 C-1.34 1.34 -0.68 0.68 0 0 Z " fill="#B5C7CA" transform="translate(46,198)"/>
<path d="M0 0 C4.55555556 0.55555556 4.55555556 0.55555556 6 2 C6.1875 4.4375 6.1875 4.4375 6 7 C5.34 7.66 4.68 8.32 4 9 C-0.55555556 8.44444444 -0.55555556 8.44444444 -2 7 C-2.1875 4.5625 -2.1875 4.5625 -2 2 C-1.34 1.34 -0.68 0.68 0 0 Z " fill="#B5C7CA" transform="translate(76,90)"/>
<path d="M0 0 C2.625 0.375 2.625 0.375 5 1 C5.33 2.32 5.66 3.64 6 5 C4.35 5 2.7 5 1 5 C1 5.66 1 6.32 1 7 C2.65 7 4.3 7 6 7 C6 7.66 6 8.32 6 9 C0.25 9.125 0.25 9.125 -2 8 C-2.125 5.125 -2.125 5.125 -2 2 C-1.34 1.34 -0.68 0.68 0 0 Z " fill="#95A0A8" transform="translate(105,198)"/>
<path d="M0 0 C2.625 0.375 2.625 0.375 5 1 C5.33 2.32 5.66 3.64 6 5 C4.35 5 2.7 5 1 5 C1 5.66 1 6.32 1 7 C2.65 7 4.3 7 6 7 C6 7.66 6 8.32 6 9 C0.25 9.125 0.25 9.125 -2 8 C-2.125 5.125 -2.125 5.125 -2 2 C-1.34 1.34 -0.68 0.68 0 0 Z " fill="#95A0A8" transform="translate(76,198)"/>
<path d="M0 0 C0.99 1.32 1.98 2.64 3 4 C3.33 2.68 3.66 1.36 4 0 C4.99 0 5.98 0 7 0 C7.33 1.32 7.66 2.64 8 4 C8.99 2.68 9.98 1.36 11 0 C10.67 2.97 10.34 5.94 10 9 C9.01 9 8.02 9 7 9 C6.34 7.68 5.68 6.36 5 5 C4.67 6.32 4.34 7.64 4 9 C3.01 9 2.02 9 1 9 C0.67 6.03 0.34 3.06 0 0 Z " fill="#B6C6C6" transform="translate(284,90)"/>
<path d="M0 0 C0.99 1.32 1.98 2.64 3 4 C3.33 2.68 3.66 1.36 4 0 C4.99 0 5.98 0 7 0 C7.33 1.32 7.66 2.64 8 4 C8.99 2.68 9.98 1.36 11 0 C10.67 2.97 10.34 5.94 10 9 C9.01 9 8.02 9 7 9 C6.34 7.68 5.68 6.36 5 5 C4.67 6.32 4.34 7.64 4 9 C3.01 9 2.02 9 1 9 C0.67 6.03 0.34 3.06 0 0 Z " fill="#B6C6C6" transform="translate(186,90)"/>
<path d="M0 0 C0.66 0 1.32 0 2 0 C2.33 0.66 2.66 1.32 3 2 C3.66 1.67 4.32 1.34 5 1 C5 1.66 5 2.32 5 3 C6.98 3 8.96 3 11 3 C11 3.66 11 4.32 11 5 C9.02 5.33 7.04 5.66 5 6 C4.67 7.65 4.34 9.3 4 11 C2 10 2 10 1 7 C-0.64142963 5.9590934 -2.30712215 4.95495674 -4 4 C-4 3.67 -4 3.34 -4 3 C-2.35 3 -0.7 3 1 3 C0.67 2.01 0.34 1.02 0 0 Z " fill="#232630" transform="translate(63,38)"/>
<path d="M0 0 C1.32 0 2.64 0 4 0 C4 4.29 4 8.58 4 13 C2.66666667 13 1.33333333 13 0 13 C0 8.71 0 4.42 0 0 Z " fill="#DEDFD6" transform="translate(48,34)"/>
<path d="M0 0 C2.31 0 4.62 0 7 0 C7 2.31 7 4.62 7 7 C4.69 7 2.38 7 0 7 C0 4.69 0 2.38 0 0 Z " fill="#151B23" transform="translate(841,245)"/>
<path d="M0 0 C1.66611905 -0.042721 3.33382885 -0.04063832 5 0 C6 1 6 1 6.09765625 2.84765625 C6.06510417 4.8984375 6.03255208 6.94921875 6 9 C3.69 9 1.38 9 -1 9 C-0.67 7.35 -0.34 5.7 0 4 C1.32 4 2.64 4 4 4 C4 3.34 4 2.68 4 2 C2.68 2 1.36 2 0 2 C0 1.34 0 0.68 0 0 Z " fill="#A3A8A7" transform="translate(255,198)"/>
<path d="M0 0 C0.66 0 1.32 0 2 0 C2 0.66 2 1.32 2 2 C2.66 2.33 3.32 2.66 4 3 C3.34 3 2.68 3 2 3 C2 5.31 2 7.62 2 10 C2.66 10.33 3.32 10.66 4 11 C2.68 10.67 1.36 10.34 0 10 C0 7.69 0 5.38 0 3 C-1.65 3.33 -3.3 3.66 -5 4 C-5 6.31 -5 8.62 -5 11 C-5.66 11 -6.32 11 -7 11 C-7 8.03 -7 5.06 -7 2 C-4.69 2 -2.38 2 0 2 C0 1.34 0 0.68 0 0 Z " fill="#BBC4BE" transform="translate(216,196)"/>
<path d="M0 0 C2.625 0.375 2.625 0.375 5 1 C5.33 2.32 5.66 3.64 6 5 C4.35 5 2.7 5 1 5 C1.95865509 7.33075929 1.95865509 7.33075929 5 9 C2.69 8.67 0.38 8.34 -2 8 C-2.125 5.125 -2.125 5.125 -2 2 C-1.34 1.34 -0.68 0.68 0 0 Z " fill="#98A5AF" transform="translate(67,198)"/>
<path d="M0 0 C2.31 0 4.62 0 7 0 C7 2.31 7 4.62 7 7 C4.69 7 2.38 7 0 7 C0 4.69 0 2.38 0 0 Z " fill="#151B23" transform="translate(841,137)"/>
<path d="M0 0 C1.66611905 -0.042721 3.33382885 -0.04063832 5 0 C6 1 6 1 6.09765625 2.84765625 C6.06510417 4.8984375 6.03255208 6.94921875 6 9 C4.02 9 2.04 9 0 9 C-0.33 7.68 -0.66 6.36 -1 5 C0.65 4.67 2.3 4.34 4 4 C4 3.34 4 2.68 4 2 C2.68 2 1.36 2 0 2 C0 1.34 0 0.68 0 0 Z " fill="#BCC9CB" transform="translate(373,90)"/>
<path d="M0 0 C2.625 0.375 2.625 0.375 5 1 C5 2.32 5 3.64 5 5 C3.35 5 1.7 5 0 5 C0 5.66 0 6.32 0 7 C1.65 7 3.3 7 5 7 C5 7.66 5 8.32 5 9 C2.625 9.125 2.625 9.125 0 9 C-2 7 -2 7 -2.25 4.5 C-2 2 -2 2 0 0 Z " fill="#A3AEB5" transform="translate(337,198)"/>
<path d="M0 0 C2.625 0.375 2.625 0.375 5 1 C5.33 2.32 5.66 3.64 6 5 C4.02 5 2.04 5 0 5 C0 5.66 0 6.32 0 7 C1.65 7.33 3.3 7.66 5 8 C5 8.33 5 8.66 5 9 C2.625 9.125 2.625 9.125 0 9 C-2 7 -2 7 -2.25 4.5 C-2 2 -2 2 0 0 Z " fill="#A2AEB5" transform="translate(360,198)"/>
<path d="M0 0 C2.625 0.375 2.625 0.375 5 1 C5.33 2.32 5.66 3.64 6 5 C4.02 5 2.04 5 0 5 C0 5.66 0 6.32 0 7 C1.65 7.33 3.3 7.66 5 8 C5 8.33 5 8.66 5 9 C2.625 9.125 2.625 9.125 0 9 C-2 7 -2 7 -2.25 4.5 C-2 2 -2 2 0 0 Z " fill="#A2AEB5" transform="translate(308,198)"/>
<path d="M0 0 C2.625 0.375 2.625 0.375 5 1 C5 2.32 5 3.64 5 5 C3.35 5 1.7 5 0 5 C0 5.66 0 6.32 0 7 C1.65 7 3.3 7 5 7 C5 7.66 5 8.32 5 9 C2.625 9.125 2.625 9.125 0 9 C-2 7 -2 7 -2.25 4.5 C-2 2 -2 2 0 0 Z " fill="#A3AEB5" transform="translate(240,90)"/>
<path d="M0 0 C2.625 0.375 2.625 0.375 5 1 C5 2.32 5 3.64 5 5 C3.35 5 1.7 5 0 5 C0 5.66 0 6.32 0 7 C1.65 7 3.3 7 5 7 C5 7.66 5 8.32 5 9 C2.625 9.125 2.625 9.125 0 9 C-2 7 -2 7 -2.25 4.5 C-2 2 -2 2 0 0 Z " fill="#A3AEB5" transform="translate(57,90)"/>
<path d="M0 0 C2.625 0.375 2.625 0.375 5 1 C5.33 2.32 5.66 3.64 6 5 C4.02 5 2.04 5 0 5 C0 5.66 0 6.32 0 7 C1.65 7.33 3.3 7.66 5 8 C5 8.33 5 8.66 5 9 C2.625 9.125 2.625 9.125 0 9 C-2 7 -2 7 -2.25 4.5 C-2 2 -2 2 0 0 Z " fill="#A2AEB5" transform="translate(144,90)"/>
<path d="M0 0 C1.66611905 -0.042721 3.33382885 -0.04063832 5 0 C6 1 6 1 6.09765625 2.84765625 C6.06510417 4.8984375 6.03255208 6.94921875 6 9 C4.02 9 2.04 9 0 9 C-0.5625 7.0625 -0.5625 7.0625 -1 5 C0 4 0 4 2.5625 3.9375 C3.7690625 3.9684375 3.7690625 3.9684375 5 4 C5 3.34 5 2.68 5 2 C3.35 2 1.7 2 0 2 C0 1.34 0 0.68 0 0 Z " fill="#9CAAB2" transform="translate(110,90)"/>
<path d="M0 0 C4.70588235 0.70588235 4.70588235 0.70588235 6 2 C6.04063832 3.66617115 6.042721 5.33388095 6 7 C4.00045254 7.04254356 1.99958364 7.04080783 0 7 C-1 6 -1 6 -1.125 3.5 C-1 1 -1 1 0 0 Z " fill="#798286" transform="translate(94,251)"/>
<path d="M0 0 C4.70588235 0.70588235 4.70588235 0.70588235 6 2 C6.04063832 3.66617115 6.042721 5.33388095 6 7 C4.00045254 7.04254356 1.99958364 7.04080783 0 7 C-1 6 -1 6 -1.125 3.5 C-1 1 -1 1 0 0 Z " fill="#798286" transform="translate(94,143)"/>
<path d="M0 0 C2.0625 0.4375 2.0625 0.4375 4 1 C3.67 1.33 3.34 1.66 3 2 C4.32 2 5.64 2 7 2 C6.34 3.98 5.68 5.96 5 8 C3.33388095 8.042721 1.66617115 8.04063832 0 8 C-1 7 -1 7 -1.125 4 C-1 1 -1 1 0 0 Z " fill="#A4ADB6" transform="translate(68,43)"/>
<path d="M0 0 C0.99 0.66 1.98 1.32 3 2 C2.01 2.495 2.01 2.495 1 3 C1 4.65 1 6.3 1 8 C1.99 8.33 2.98 8.66 4 9 C3.67 9.99 3.34 10.98 3 12 C-1.875 11.125 -1.875 11.125 -3 10 C-3.47323944 3.61126761 -3.47323944 3.61126761 -1.5 1.0625 C-1.005 0.711875 -0.51 0.36125 0 0 Z " fill="#E9EBE7" transform="translate(85,39)"/>
<path d="M0 0 C1.65 0 3.3 0 5 0 C6 1 6 1 6.0625 3.5625 C6.041875 4.366875 6.02125 5.17125 6 6 C4.35 6.33 2.7 6.66 1 7 C0.67 7.99 0.34 8.98 0 10 C0 6.7 0 3.4 0 0 Z " fill="#95958F" transform="translate(159,251)"/>
<path d="M0 0 C2.33294775 -0.04241723 4.66702567 -0.04092937 7 0 C8 1 8 1 8.09765625 2.84765625 C8.04882812 5.92382812 8.04882812 5.92382812 8 9 C7.34 9 6.68 9 6 9 C6 6.69 6 4.38 6 2 C4.68 2 3.36 2 2 2 C2 4.31 2 6.62 2 9 C1.34 9 0.68 9 0 9 C0 6.03 0 3.06 0 0 Z " fill="#A8B7BA" transform="translate(381,90)"/>
<path d="M0 0 C-0.99 0.495 -0.99 0.495 -2 1 C-1.67 2.32 -1.34 3.64 -1 5 C-1.928125 4.9175 -2.85625 4.835 -3.8125 4.75 C-7.09105222 4.64696955 -7.09105222 4.64696955 -8.875 7 C-9.24625 7.66 -9.6175 8.32 -10 9 C-10.35789474 3.63157895 -10.35789474 3.63157895 -8.9375 1.125 C-5.99772876 -0.58196395 -3.32129197 -0.18799766 0 0 Z " fill="#97A9BB" transform="translate(106,38)"/>
<path d="M0 0 C1.67542976 0.28604898 3.34385343 0.61781233 5 1 C5.625 2.875 5.625 2.875 6 5 C5.34 5.66 4.68 6.32 4 7 C1.375 6.625 1.375 6.625 -1 6 C-1.042721 4.33388095 -1.04063832 2.66617115 -1 1 C-0.67 0.67 -0.34 0.34 0 0 Z " fill="#7B878C" transform="translate(86,251)"/>
<path d="M0 0 C0.99 0.33 1.98 0.66 3 1 C2.34 1 1.68 1 1 1 C1 3.64 1 6.28 1 9 C3.64 9 6.28 9 9 9 C9.33 8.34 9.66 7.68 10 7 C9.67 8.32 9.34 9.64 9 11 C7.52093108 11.02689216 6.04172517 11.04634621 4.5625 11.0625 C3.32693359 11.07990234 3.32693359 11.07990234 2.06640625 11.09765625 C0 11 0 11 -1 10 C-1.0979057 8.50261876 -1.12974864 7.00057108 -1.125 5.5 C-1.12757813 4.6853125 -1.13015625 3.870625 -1.1328125 3.03125 C-1 1 -1 1 0 0 Z " fill="#777D86" transform="translate(835,248)"/>
<path d="M0 0 C0.66 0 1.32 0 2 0 C2.33 2.31 2.66 4.62 3 7 C3.66 7 4.32 7 5 7 C5.33 4.69 5.66 2.38 6 0 C6.66 0 7.32 0 8 0 C8 2.97 8 5.94 8 9 C5.66705225 9.04241723 3.33297433 9.04092937 1 9 C0 8 0 8 -0.09765625 6.15234375 C-0.06510417 4.1015625 -0.03255208 2.05078125 0 0 Z " fill="#AFC0C0" transform="translate(289,198)"/>
<path d="M0 0 C2.625 0.375 2.625 0.375 5 1 C5 2.32 5 3.64 5 5 C3.35 5 1.7 5 0 5 C0.95865509 7.33075929 0.95865509 7.33075929 4 9 C-0.875 8.125 -0.875 8.125 -2 7 C-2.1875 4.5625 -2.1875 4.5625 -2 2 C-1.34 1.34 -0.68 0.68 0 0 Z " fill="#A7B4BB" transform="translate(223,198)"/>
<path d="M0 0 C1.67542976 0.28604898 3.34385343 0.61781233 5 1 C5.625 2.875 5.625 2.875 6 5 C5.34 5.66 4.68 6.32 4 7 C1.375 6.625 1.375 6.625 -1 6 C-1.042721 4.33388095 -1.04063832 2.66617115 -1 1 C-0.67 0.67 -0.34 0.34 0 0 Z " fill="#7B878C" transform="translate(86,143)"/>
<path d="M0 0 C0.99 0.33 1.98 0.66 3 1 C2.34 1 1.68 1 1 1 C1 3.64 1 6.28 1 9 C3.64 9 6.28 9 9 9 C9.33 8.34 9.66 7.68 10 7 C9.67 8.32 9.34 9.64 9 11 C7.52093108 11.02689216 6.04172517 11.04634621 4.5625 11.0625 C3.32693359 11.07990234 3.32693359 11.07990234 2.06640625 11.09765625 C0 11 0 11 -1 10 C-1.0979057 8.50261876 -1.12974864 7.00057108 -1.125 5.5 C-1.12757813 4.6853125 -1.13015625 3.870625 -1.1328125 3.03125 C-1 1 -1 1 0 0 Z " fill="#777D86" transform="translate(835,140)"/>
<path d="M0 0 C2.875 -0.125 2.875 -0.125 6 0 C8 2 8 2 8.125 5.625 C8.08375 6.73875 8.0425 7.8525 8 9 C7.34 9 6.68 9 6 9 C6 6.69 6 4.38 6 2 C4.68 2 3.36 2 2 2 C2 4.31 2 6.62 2 9 C1.34 9 0.68 9 0 9 C0 6.03 0 3.06 0 0 Z " fill="#B0C0BE" transform="translate(301,90)"/>
<path d="M0 0 C2.875 -0.125 2.875 -0.125 6 0 C8 2 8 2 8.125 5.625 C8.08375 6.73875 8.0425 7.8525 8 9 C7.34 9 6.68 9 6 9 C6 6.69 6 4.38 6 2 C4.68 2 3.36 2 2 2 C2 4.31 2 6.62 2 9 C1.34 9 0.68 9 0 9 C0 6.03 0 3.06 0 0 Z " fill="#B0C0BE" transform="translate(172,90)"/>
<path d="M0 0 C0.66 0 1.32 0 2 0 C2 0.99 2 1.98 2 3 C3.65 3.33 5.3 3.66 7 4 C7 6.64 7 9.28 7 12 C6.67 12 6.34 12 6 12 C6 9.69 6 7.38 6 5 C4.68 5 3.36 5 2 5 C2 7.31 2 9.62 2 12 C1.34 12 0.68 12 0 12 C0 8.04 0 4.08 0 0 Z " fill="#BCC8C1" transform="translate(94,195)"/>
<path d="M0 0 C0.66 0 1.32 0 2 0 C2 0.99 2 1.98 2 3 C3.65 3.33 5.3 3.66 7 4 C7 6.64 7 9.28 7 12 C6.34 12 5.68 12 5 12 C5 9.69 5 7.38 5 5 C3.68 5 2.36 5 1 5 C1 7.31 1 9.62 1 12 C0.67 12 0.34 12 0 12 C0 8.04 0 4.08 0 0 Z " fill="#AFBFC3" transform="translate(349,195)"/>
<path d="M0 0 C0.66 0 1.32 0 2 0 C2 0.99 2 1.98 2 3 C3.65 3.33 5.3 3.66 7 4 C7 6.64 7 9.28 7 12 C6.34 12 5.68 12 5 12 C5 9.69 5 7.38 5 5 C3.68 5 2.36 5 1 5 C1 7.31 1 9.62 1 12 C0.67 12 0.34 12 0 12 C0 8.04 0 4.08 0 0 Z " fill="#AFBFC3" transform="translate(326,195)"/>
<path d="M0 0 C0.66 0 1.32 0 2 0 C2 0.99 2 1.98 2 3 C3.65 3.33 5.3 3.66 7 4 C7 6.64 7 9.28 7 12 C6.67 12 6.34 12 6 12 C6 9.69 6 7.38 6 5 C4.68 5 3.36 5 2 5 C2 7.31 2 9.62 2 12 C1.34 12 0.68 12 0 12 C0 8.04 0 4.08 0 0 Z " fill="#BCC8C1" transform="translate(209,87)"/>
<path d="M0 0 C0.66 0 1.32 0 2 0 C2 0.99 2 1.98 2 3 C3.65 3.33 5.3 3.66 7 4 C7 6.64 7 9.28 7 12 C6.34 12 5.68 12 5 12 C5 9.69 5 7.38 5 5 C3.68 5 2.36 5 1 5 C1 7.31 1 9.62 1 12 C0.67 12 0.34 12 0 12 C0 8.04 0 4.08 0 0 Z " fill="#AFBFC3" transform="translate(229,87)"/>
<path d="M0 0 C0.66 0 1.32 0 2 0 C2.33 2.31 2.66 4.62 3 7 C3.66 7 4.32 7 5 7 C5.33 4.69 5.66 2.38 6 0 C6.66 0 7.32 0 8 0 C8 2.97 8 5.94 8 9 C2.25 9.125 2.25 9.125 0 8 C0 5.36 0 2.72 0 0 Z " fill="#A7BEC4" transform="translate(162,90)"/>
<path d="M0 0 C0.66 0 1.32 0 2 0 C2 0.99 2 1.98 2 3 C3.65 3.33 5.3 3.66 7 4 C7 6.64 7 9.28 7 12 C6.34 12 5.68 12 5 12 C5 9.69 5 7.38 5 5 C3.68 5 2.36 5 1 5 C1 7.31 1 9.62 1 12 C0.67 12 0.34 12 0 12 C0 8.04 0 4.08 0 0 Z " fill="#AFBFC3" transform="translate(46,87)"/>
<path d="M0 0 C0.99 0 1.98 0 3 0 C3.0825 0.61875 3.165 1.2375 3.25 1.875 C3.81258459 4.18437567 3.81258459 4.18437567 6.0625 5.25 C6.701875 5.4975 7.34125 5.745 8 6 C8 6.66 8 7.32 8 8 C5.36 8 2.72 8 0 8 C0 5.36 0 2.72 0 0 Z " fill="#1B2129" transform="translate(836,249)"/>
<path d="M0 0 C0.99 0 1.98 0 3 0 C3.05389087 1.95803507 3.09274217 3.91648909 3.125 5.875 C3.14820313 6.96554688 3.17140625 8.05609375 3.1953125 9.1796875 C3 12 3 12 1 14 C-0.38226016 11.23547967 -0.09525387 8.9538637 -0.0625 5.875 C-0.05347656 4.77929688 -0.04445312 3.68359375 -0.03515625 2.5546875 C-0.02355469 1.71164063 -0.01195312 0.86859375 0 0 Z " fill="#B7D3EF" transform="translate(37,34)"/>
<path d="M0 0 C0.66 0.66 1.32 1.32 2 2 C2.99 2 3.98 2 5 2 C5.66 1.34 6.32 0.68 7 0 C7 2.31 7 4.62 7 7 C4.69 7 2.38 7 0 7 C0 4.69 0 2.38 0 0 Z " fill="#A1B1B4" transform="translate(52,251)"/>
<path d="M0 0 C1.99954746 -0.04254356 4.00041636 -0.04080783 6 0 C7 1 7 1 7.09765625 2.84765625 C7.06510417 4.8984375 7.03255208 6.94921875 7 9 C6.67 9 6.34 9 6 9 C6 6.69 6 4.38 6 2 C4.68 2 3.36 2 2 2 C2 4.31 2 6.62 2 9 C1.34 9 0.68 9 0 9 C0 6.03 0 3.06 0 0 Z " fill="#BCCAC5" transform="translate(425,198)"/>
<path d="M0 0 C1.65 0.33 3.3 0.66 5 1 C5.33 2.98 5.66 4.96 6 7 C3.69 7 1.38 7 -1 7 C-0.67 5.68 -0.34 4.36 0 3 C0.99 3 1.98 3 3 3 C3 2.34 3 1.68 3 1 C1.68 1.33 0.36 1.66 -1 2 C-0.67 1.34 -0.34 0.68 0 0 Z " fill="#A1AFB6" transform="translate(192,143)"/>
<path d="M0 0 C0.66 0.66 1.32 1.32 2 2 C2.99 2 3.98 2 5 2 C5.66 1.34 6.32 0.68 7 0 C7 2.31 7 4.62 7 7 C4.69 7 2.38 7 0 7 C0 4.69 0 2.38 0 0 Z " fill="#A1B1B4" transform="translate(52,143)"/>
<path d="M0 0 C1.99954746 -0.04254356 4.00041636 -0.04080783 6 0 C7 1 7 1 7.09765625 2.84765625 C7.06510417 4.8984375 7.03255208 6.94921875 7 9 C6.34 9 5.68 9 5 9 C5 6.69 5 4.38 5 2 C3.68 2 2.36 2 1 2 C1 4.31 1 6.62 1 9 C0.67 9 0.34 9 0 9 C0 6.03 0 3.06 0 0 Z " fill="#ACC2CC" transform="translate(119,90)"/>
<path d="M0 0 C0.66 0 1.32 0 2 0 C2 0.66 2 1.32 2 2 C3.32 2.33 4.64 2.66 6 3 C6 4.98 6 6.96 6 9 C5.34 9 4.68 9 4 9 C4 7.02 4 5.04 4 3 C3.34 3 2.68 3 2 3 C2 4.98 2 6.96 2 9 C1.34 9 0.68 9 0 9 C0 6.03 0 3.06 0 0 Z " fill="#A0B2B4" transform="translate(134,249)"/>
<path d="M0 0 C1.67542976 0.28604898 3.34385343 0.61781233 5 1 C5 1.99 5 2.98 5 4 C3.68 4 2.36 4 1 4 C1 4.66 1 5.32 1 6 C2.32 5.67 3.64 5.34 5 5 C5 5.66 5 6.32 5 7 C3.33388095 7.042721 1.66617115 7.04063832 0 7 C-1 6 -1 6 -1.125 3.5 C-1 1 -1 1 0 0 Z " fill="#99A9B1" transform="translate(143,251)"/>
<path d="M0 0 C1.65 0 3.3 0 5 0 C4.01 0.66 3.02 1.32 2 2 C3.32 2.99 4.64 3.98 6 5 C5.67 6.32 5.34 7.64 5 9 C3.35 9 1.7 9 0 9 C0 8.34 0 7.68 0 7 C0.99 6.67 1.98 6.34 3 6 C2.01 5.34 1.02 4.68 0 4 C0 2.68 0 1.36 0 0 Z " fill="#B2BEC1" transform="translate(162,198)"/>
<path d="M0 0 C1.65 0 3.3 0 5 0 C4.01 0.66 3.02 1.32 2 2 C3.32 2.99 4.64 3.98 6 5 C5.67 6.32 5.34 7.64 5 9 C3.35 9 1.7 9 0 9 C0 8.34 0 7.68 0 7 C0.99 6.67 1.98 6.34 3 6 C2.01 5.34 1.02 4.68 0 4 C0 2.68 0 1.36 0 0 Z " fill="#B2BEC1" transform="translate(125,198)"/>
<path d="M0 0 C1.65 0 3.3 0 5 0 C4.01 0.66 3.02 1.32 2 2 C3.32 2.99 4.64 3.98 6 5 C5.67 6.32 5.34 7.64 5 9 C3.35 9 1.7 9 0 9 C0 8.34 0 7.68 0 7 C0.99 6.67 1.98 6.34 3 6 C2.01 5.34 1.02 4.68 0 4 C0 2.68 0 1.36 0 0 Z " fill="#B2BEC1" transform="translate(58,198)"/>
<path d="M0 0 C0.99 0.33 1.98 0.66 3 1 C2.95875 1.94875 2.9175 2.8975 2.875 3.875 C2.65026182 7.10244856 2.65026182 7.10244856 5 9 C4.01 9 3.02 9 2 9 C2 10.32 2 11.64 2 13 C1.34 13 0.68 13 0 13 C0 8.71 0 4.42 0 0 Z " fill="#9DBBD0" transform="translate(395,198)"/>
<path d="M0 0 C1.32 0.33 2.64 0.66 4 1 C3.67 1.99 3.34 2.98 3 4 C2.34 4 1.68 4 1 4 C1 6.64 1 9.28 1 12 C0.34 12 -0.32 12 -1 12 C-1.2226746 10.56465159 -1.42761906 9.12654475 -1.625 7.6875 C-1.74101562 6.88699219 -1.85703125 6.08648437 -1.9765625 5.26171875 C-2 3 -2 3 0 0 Z " fill="#B9C4BF" transform="translate(253,87)"/>
<path d="M0 0 C2.0625 0.4375 2.0625 0.4375 4 1 C4 2.65 4 4.3 4 6 C2.0625 6.5625 2.0625 6.5625 0 7 C-1 6 -1 6 -1.125 3.5 C-1 1 -1 1 0 0 Z " fill="#202432" transform="translate(86,41)"/>
<path d="M0 0 C2.76276177 0.52268466 5.3260876 1.10869587 8 2 C8 2.66 8 3.32 8 4 C6.02 4 4.04 4 2 4 C1.67 4.66 1.34 5.32 1 6 C0.67 5.34 0.34 4.68 0 4 C-0.99 4 -1.98 4 -3 4 C-2.01 2.68 -1.02 1.36 0 0 Z " fill="#1E2431" transform="translate(53,44)"/>
<path d="M0 0 C0 2.31 0 4.62 0 7 C-0.99 7.495 -0.99 7.495 -2 8 C-2.33 7.01 -2.66 6.02 -3 5 C-4.99665314 3.31461399 -4.99665314 3.31461399 -7 2 C-4.35261084 0.5393715 -3.10551666 0 0 0 Z " fill="#32303D" transform="translate(170,198)"/>
<path d="M0 0 C1.67542976 0.28604898 3.34385343 0.61781233 5 1 C5 1.99 5 2.98 5 4 C3.68 4.33 2.36 4.66 1 5 C1.99 5.66 2.98 6.32 4 7 C2.35 6.67 0.7 6.34 -1 6 C-1.042721 4.33388095 -1.04063832 2.66617115 -1 1 C-0.67 0.67 -0.34 0.34 0 0 Z " fill="#A3B0B3" transform="translate(176,143)"/>
<path d="M0 0 C0 0.99 0 1.98 0 3 C-1.65 3 -3.3 3 -5 3 C-5 3.66 -5 4.32 -5 5 C-5.66 5 -6.32 5 -7 5 C-7 3.35 -7 1.7 -7 0 C-4.3333581 -1.33332095 -2.83319697 -0.67102033 0 0 Z " fill="#97A1A6" transform="translate(214,144)"/>
<path d="M0 0 C0.99 0.33 1.98 0.66 3 1 C2.34 1 1.68 1 1 1 C1 1.66 1 2.32 1 3 C1.66 3.33 2.32 3.66 3 4 C2.34 4 1.68 4 1 4 C1 6.64 1 9.28 1 12 C0.34 12 -0.32 12 -1 12 C-1.2226746 10.56465159 -1.42761906 9.12654475 -1.625 7.6875 C-1.74101562 6.88699219 -1.85703125 6.08648437 -1.9765625 5.26171875 C-2 3 -2 3 0 0 Z " fill="#C7C6B9" transform="translate(246,195)"/>
<path d="M0 0 C0.99 0.33 1.98 0.66 3 1 C2.34 1 1.68 1 1 1 C1 1.66 1 2.32 1 3 C1.66 3.33 2.32 3.66 3 4 C2.34 4 1.68 4 1 4 C1 6.64 1 9.28 1 12 C0.34 12 -0.32 12 -1 12 C-1.2226746 10.56465159 -1.42761906 9.12654475 -1.625 7.6875 C-1.74101562 6.88699219 -1.85703125 6.08648437 -1.9765625 5.26171875 C-2 3 -2 3 0 0 Z " fill="#C7C6B9" transform="translate(154,195)"/>
<path d="M0 0 C1.65 0 3.3 0 5 0 C4 2 4 2 2 3 C3.32 3.66 4.64 4.32 6 5 C5.67 6.32 5.34 7.64 5 9 C3.35 9 1.7 9 0 9 C1.32 8.67 2.64 8.34 4 8 C3.34 7.4225 2.68 6.845 2 6.25 C0 4 0 4 0 0 Z " fill="#C1C7C3" transform="translate(299,198)"/>
<path d="M0 0 C1.65 0 3.3 0 5 0 C4 2 4 2 2 3 C3.32 3.66 4.64 4.32 6 5 C5.67 6.32 5.34 7.64 5 9 C3.35 9 1.7 9 0 9 C1.32 8.67 2.64 8.34 4 8 C3.34 7.4225 2.68 6.845 2 6.25 C0 4 0 4 0 0 Z " fill="#C1C7C3" transform="translate(273,198)"/>
<path d="M0 0 C0.66 0.33 1.32 0.66 2 1 C1.67 2.98 1.34 4.96 1 7 C-0.98 6.34 -2.96 5.68 -5 5 C-5 4.34 -5 3.68 -5 3 C-3.35 3 -1.7 3 0 3 C0 2.01 0 1.02 0 0 Z " fill="#534947" transform="translate(228,200)"/>
<path d="M0 0 C0.33 0.66 0.66 1.32 1 2 C1.66 2.33 2.32 2.66 3 3 C2.34 3 1.68 3 1 3 C1 5.31 1 7.62 1 10 C1.66 10.33 2.32 10.66 3 11 C1.68 10.67 0.36 10.34 -1 10 C-1.9765625 3.9453125 -1.9765625 3.9453125 -2 2 C-1.34 1.34 -0.68 0.68 0 0 Z " fill="#AAC4CE" transform="translate(406,196)"/>
<path d="M0 0 C0.33 0.66 0.66 1.32 1 2 C1.66 2.33 2.32 2.66 3 3 C2.34 3 1.68 3 1 3 C1 5.31 1 7.62 1 10 C1.66 10.33 2.32 10.66 3 11 C1.68 10.67 0.36 10.34 -1 10 C-1.9765625 3.9453125 -1.9765625 3.9453125 -2 2 C-1.34 1.34 -0.68 0.68 0 0 Z " fill="#AAC4CE" transform="translate(89,196)"/>
<path d="M0 0 C0.66 0 1.32 0 2 0 C2 0.66 2 1.32 2 2 C2.66 2.33 3.32 2.66 4 3 C3.34 3 2.68 3 2 3 C2 5.31 2 7.62 2 10 C2.66 10.33 3.32 10.66 4 11 C2.68 10.67 1.36 10.34 0 10 C-1.125 2.25 -1.125 2.25 0 0 Z " fill="#BCCBC8" transform="translate(320,196)"/>
<path d="M0 0 C0.66 0 1.32 0 2 0 C2 0.66 2 1.32 2 2 C2.66 2.33 3.32 2.66 4 3 C3.34 3 2.68 3 2 3 C2 5.31 2 7.62 2 10 C2.66 10.33 3.32 10.66 4 11 C2.68 10.67 1.36 10.34 0 10 C-1.125 2.25 -1.125 2.25 0 0 Z " fill="#BCCBC8" transform="translate(133,196)"/>
<path d="M0 0 C0.66 0 1.32 0 2 0 C2 0.66 2 1.32 2 2 C2.66 2.33 3.32 2.66 4 3 C3.34 3 2.68 3 2 3 C2 5.31 2 7.62 2 10 C2.66 10.33 3.32 10.66 4 11 C2.68 10.67 1.36 10.34 0 10 C-1.125 2.25 -1.125 2.25 0 0 Z " fill="#BCCBC8" transform="translate(223,88)"/>
<path d="M0 0 C0.66 0 1.32 0 2 0 C2 0.66 2 1.32 2 2 C2.66 2.33 3.32 2.66 4 3 C3.34 3 2.68 3 2 3 C2 5.31 2 7.62 2 10 C2.66 10.33 3.32 10.66 4 11 C2.68 10.67 1.36 10.34 0 10 C-1.125 2.25 -1.125 2.25 0 0 Z " fill="#BCCBC8" transform="translate(203,88)"/>
<path d="M0 0 C0.66 0 1.32 0 2 0 C2 0.66 2 1.32 2 2 C2.66 2.33 3.32 2.66 4 3 C3.34 3 2.68 3 2 3 C2 5.31 2 7.62 2 10 C2.66 10.33 3.32 10.66 4 11 C2.68 10.67 1.36 10.34 0 10 C-1.125 2.25 -1.125 2.25 0 0 Z " fill="#C5C5B8" transform="translate(69,88)"/>
<path d="M0 0 C1.65 0 3.3 0 5 0 C5 1.65 5 3.3 5 5 C3.35 5 1.7 5 0 5 C0 3.35 0 1.7 0 0 Z " fill="#322F36" transform="translate(144,200)"/>
<path d="M0 0 C0.66 0 1.32 0 2 0 C2 2.64 2 5.28 2 8 C2.66 8.33 3.32 8.66 4 9 C1.69 9 -0.62 9 -3 9 C-2.01 8.67 -1.02 8.34 0 8 C0 6.35 0 4.7 0 3 C-0.66 2.67 -1.32 2.34 -2 2 C-1.34 2 -0.68 2 0 2 C0 1.34 0 0.68 0 0 Z " fill="#B4BCB7" transform="translate(161,141)"/>
<path d="M0 0 C0.598125 0.20625 1.19625 0.4125 1.8125 0.625 C1.8125 1.285 1.8125 1.945 1.8125 2.625 C0.8225 2.625 -0.1675 2.625 -1.1875 2.625 C-1.1875 4.605 -1.1875 6.585 -1.1875 8.625 C-1.8475 8.625 -2.5075 8.625 -3.1875 8.625 C-3.1875 6.645 -3.1875 4.665 -3.1875 2.625 C-3.8475 2.295 -4.5075 1.965 -5.1875 1.625 C-2.1875 -0.375 -2.1875 -0.375 0 0 Z " fill="#BCC0BA" transform="translate(155.1875,141.375)"/>
<path d="M0 0 C2.64 0 5.28 0 8 0 C8.33 1.65 8.66 3.3 9 5 C8.67 4.34 8.34 3.68 8 3 C5.69 3 3.38 3 1 3 C0.67 2.01 0.34 1.02 0 0 Z " fill="#383434" transform="translate(100,45)"/>
<path d="M0 0 C0.66 0 1.32 0 2 0 C2 0.66 2 1.32 2 2 C2.99 2.33 3.98 2.66 5 3 C4.01 3 3.02 3 2 3 C2 4.65 2 6.3 2 8 C2.99 8.33 3.98 8.66 5 9 C3.35 8.67 1.7 8.34 0 8 C-1.125 2.25 -1.125 2.25 0 0 Z " fill="#B2BEBD" transform="translate(78,249)"/>
<path d="M0 0 C0.66 0 1.32 0 2 0 C2 0.66 2 1.32 2 2 C2.99 2.33 3.98 2.66 5 3 C4.01 3 3.02 3 2 3 C2 4.65 2 6.3 2 8 C2.99 8.33 3.98 8.66 5 9 C3.35 8.67 1.7 8.34 0 8 C-1.125 2.25 -1.125 2.25 0 0 Z " fill="#B2BEBD" transform="translate(78,141)"/>
<path d="M0 0 C0.33 0 0.66 0 1 0 C1 5.61 1 11.22 1 17 C-0.98 17.99 -0.98 17.99 -3 19 C-2.68289062 18.49984375 -2.36578125 17.9996875 -2.0390625 17.484375 C-0.6351235 14.12758852 -0.53774346 10.83713706 -0.375 7.25 C-0.33632812 6.55261719 -0.29765625 5.85523438 -0.2578125 5.13671875 C-0.16401376 3.42489182 -0.08093826 1.71248318 0 0 Z " fill="#EBEADF" transform="translate(92,38)"/>
<path d="M0 0 C0.33 2.64 0.66 5.28 1 8 C-0.32 8 -1.64 8 -3 8 C-3 5.69 -3 3.38 -3 1 C-1 0 -1 0 0 0 Z " fill="#22232E" transform="translate(221,198)"/>
<path d="M0 0 C0.33 2.64 0.66 5.28 1 8 C-0.32 8 -1.64 8 -3 8 C-3 5.69 -3 3.38 -3 1 C-1 0 -1 0 0 0 Z " fill="#22232F" transform="translate(74,90)"/>
<path d="M0 0 C0 2.97 0 5.94 0 9 C-0.99 8.67 -1.98 8.34 -3 8 C-3 5.69 -3 3.38 -3 1 C-1 0 -1 0 0 0 Z " fill="#312624" transform="translate(208,90)"/>
<path d="M0 0 C2.475 0.495 2.475 0.495 5 1 C4.01 1.33 3.02 1.66 2 2 C2 4.31 2 6.62 2 9 C1.34 9 0.68 9 0 9 C0 6.03 0 3.06 0 0 Z " fill="#96B2C4" transform="translate(357,90)"/>
<path d="M0 0 C2.475 0.495 2.475 0.495 5 1 C4.01 1.33 3.02 1.66 2 2 C2 4.31 2 6.62 2 9 C1.34 9 0.68 9 0 9 C0 6.03 0 3.06 0 0 Z " fill="#96B2C4" transform="translate(342,90)"/>
<path d="M0 0 C0.33 0 0.66 0 1 0 C1 2.31 1 4.62 1 7 C-0.98 6.34 -2.96 5.68 -5 5 C-5 4.34 -5 3.68 -5 3 C-3.35 3 -1.7 3 0 3 C0 2.01 0 1.02 0 0 Z " fill="#423B38" transform="translate(73,200)"/>
<path d="M0 0 C1.32 0 2.64 0 4 0 C4 1.65 4 3.3 4 5 C2.68 5 1.36 5 0 5 C0 3.35 0 1.7 0 0 Z " fill="#221E26" transform="translate(201,200)"/>
<path d="M0 0 C0 2.64 0 5.28 0 8 C-2 6 -4 4 -6 2 C-2.25 0 -2.25 0 0 0 Z " fill="#3B302C" transform="translate(65,198)"/>
<path d="M0 0 C1.32 0 2.64 0 4 0 C4 1.65 4 3.3 4 5 C2.68 5 1.36 5 0 5 C0 3.35 0 1.7 0 0 Z " fill="#221E26" transform="translate(46,200)"/>
<path d="M0 0 C1.32 0 2.64 0 4 0 C4 1.65 4 3.3 4 5 C2.68 5 1.36 5 0 5 C0 3.35 0 1.7 0 0 Z " fill="#221E26" transform="translate(76,92)"/>
<path d="M0 0 C1.65 0 3.3 0 5 0 C4.34 0.66 3.68 1.32 3 2 C2.59952556 4.32275177 2.2602896 6.65739357 2 9 C1.34 9 0.68 9 0 9 C0 6.03 0 3.06 0 0 Z " fill="#BFB9A8" transform="translate(156,90)"/>
<path d="M0 0 C1.70884005 1.62339805 3.37446717 3.29319053 5 5 C5 5.66 5 6.32 5 7 C3.35 7.33 1.7 7.66 0 8 C0 5.36 0 2.72 0 0 Z " fill="#2A3F59" transform="translate(272,199)"/>
<path d="M0 0 C1.32 0 2.64 0 4 0 C4 1.65 4 3.3 4 5 C2.68 5 1.36 5 0 5 C0 3.35 0 1.7 0 0 Z " fill="#2F2420" transform="translate(397,200)"/>
<path d="M0 0 C1.32 0 2.64 0 4 0 C4 1.65 4 3.3 4 5 C2.68 5 1.36 5 0 5 C0 3.35 0 1.7 0 0 Z " fill="#172339" transform="translate(374,200)"/>
<path d="M0 0 C1.32 0 2.64 0 4 0 C4 1.65 4 3.3 4 5 C2.68 5 1.36 5 0 5 C0 3.35 0 1.7 0 0 Z " fill="#182034" transform="translate(265,200)"/>
<path d="M0 0 C1.32 0 2.64 0 4 0 C4 1.65 4 3.3 4 5 C2.68 5 1.36 5 0 5 C0 3.35 0 1.7 0 0 Z " fill="#172339" transform="translate(192,200)"/>
<path d="M0 0 C1.32 0 2.64 0 4 0 C4 1.65 4 3.3 4 5 C2.68 5 1.36 5 0 5 C0 3.35 0 1.7 0 0 Z " fill="#172339" transform="translate(182,200)"/>
<path d="M0 0 C1.32 0 2.64 0 4 0 C4 1.65 4 3.3 4 5 C2.68 5 1.36 5 0 5 C0 3.35 0 1.7 0 0 Z " fill="#141928" transform="translate(417,200)"/>
<path d="M0 0 C1.32 0 2.64 0 4 0 C4 1.65 4 3.3 4 5 C2.68 5 1.36 5 0 5 C0 3.35 0 1.7 0 0 Z " fill="#281E1D" transform="translate(387,200)"/>
<path d="M0 0 C1.32 0 2.64 0 4 0 C4 1.65 4 3.3 4 5 C2.68 5 1.36 5 0 5 C0 3.35 0 1.7 0 0 Z " fill="#1B1C28" transform="translate(232,200)"/>
<path d="M0 0 C0.66 0 1.32 0 2 0 C2 2.97 2 5.94 2 9 C1.01 9 0.02 9 -1 9 C-0.67 6.03 -0.34 3.06 0 0 Z " fill="#B9BAAB" transform="translate(295,198)"/>
<path d="M0 0 C1.32 0 2.64 0 4 0 C4 1.65 4 3.3 4 5 C2.68 5 1.36 5 0 5 C0 3.35 0 1.7 0 0 Z " fill="#171F34" transform="translate(393,92)"/>
<path d="M0 0 C1.32 0 2.64 0 4 0 C4 1.65 4 3.3 4 5 C2.68 5 1.36 5 0 5 C0 3.35 0 1.7 0 0 Z " fill="#182034" transform="translate(313,92)"/>
<path d="M0 0 C1.32 0 2.64 0 4 0 C4 1.65 4 3.3 4 5 C2.68 5 1.36 5 0 5 C0 3.35 0 1.7 0 0 Z " fill="#172339" transform="translate(135,92)"/>
<path d="M0 0 C1.32 0 2.64 0 4 0 C4 1.65 4 3.3 4 5 C2.68 5 1.36 5 0 5 C0 3.35 0 1.7 0 0 Z " fill="#281E1D" transform="translate(334,92)"/>
<path d="M0 0 C1.32 0 2.64 0 4 0 C4 1.65 4 3.3 4 5 C2.68 5 1.36 5 0 5 C0 3.35 0 1.7 0 0 Z " fill="#141928" transform="translate(277,92)"/>
<path d="M0 0 C1.32 0 2.64 0 4 0 C4 1.65 4 3.3 4 5 C2.68 5 1.36 5 0 5 C0 3.35 0 1.7 0 0 Z " fill="#141928" transform="translate(259,92)"/>
<path d="M0 0 C1.32 0 2.64 0 4 0 C4 1.65 4 3.3 4 5 C2.68 5 1.36 5 0 5 C0 3.35 0 1.7 0 0 Z " fill="#141928" transform="translate(86,92)"/>
<path d="M0 0 C0.99 0.495 0.99 0.495 2 1 C2 2.32 2 3.64 2 5 C2.99 5 3.98 5 5 5 C5 5.66 5 6.32 5 7 C3.35 7 1.7 7 0 7 C0 4.69 0 2.38 0 0 Z " fill="#796355" transform="translate(432,200)"/>
<path d="M0 0 C0.33 0.66 0.66 1.32 1 2 C2.32 2 3.64 2 5 2 C5 2.66 5 3.32 5 4 C4.38125 4.103125 3.7625 4.20625 3.125 4.3125 C0.63473516 4.87525373 0.63473516 4.87525373 -1 8 C-1.125 2.25 -1.125 2.25 0 0 Z " fill="#11223D" transform="translate(254,198)"/>
<path d="M0 0 C0.99 0.33 1.98 0.66 3 1 C2.67 3.64 2.34 6.28 2 9 C1.34 9 0.68 9 0 9 C0 6.03 0 3.06 0 0 Z " fill="#98B8CB" transform="translate(381,90)"/>
<path d="M0 0 C0.33 0.66 0.66 1.32 1 2 C2.32 2 3.64 2 5 2 C5 2.66 5 3.32 5 4 C4.38125 4.103125 3.7625 4.20625 3.125 4.3125 C0.63473516 4.87525373 0.63473516 4.87525373 -1 8 C-1.125 2.25 -1.125 2.25 0 0 Z " fill="#0D172C" transform="translate(372,90)"/>
<path d="M0 0 C2.31 0 4.62 0 7 0 C6.01 0.495 6.01 0.495 5 1 C5 1.66 5 2.32 5 3 C3.02 3 1.04 3 -1 3 C-0.67 2.01 -0.34 1.02 0 0 Z " fill="#D2DCE4" transform="translate(69,38)"/>
<path d="M0 0 C2.475 0.495 2.475 0.495 5 1 C5 1.99 5 2.98 5 4 C3.35 3.67 1.7 3.34 0 3 C0 2.01 0 1.02 0 0 Z " fill="#687178" transform="translate(374,95)"/>
<path d="M0 0 C1.65 0 3.3 0 5 0 C4.67 0.99 4.34 1.98 4 3 C1.69 3 -0.62 3 -3 3 C-2.01 2.67 -1.02 2.34 0 2 C0 1.34 0 0.68 0 0 Z " fill="#D2D3D2" transform="translate(103,48)"/>
</svg>
