<?xml version="1.0" encoding="UTF-8"?>
<svg version="1.1" xmlns="http://www.w3.org/2000/svg" width="410" height="410">
<path d="M0 0 C3.4387207 1.20483398 3.4387207 1.20483398 6.92578125 2.74609375 C7.89705711 3.16928642 7.89705711 3.16928642 8.88795471 3.60102844 C10.29320494 4.21446296 11.69644517 4.83251864 13.09783936 5.45471191 C16.99198477 7.18279596 20.90179494 8.87498796 24.80859375 10.57421875 C25.63538635 10.93504547 26.46217896 11.29587219 27.31402588 11.66763306 C35.90389046 15.41082991 44.54513202 19.02797198 53.19387817 22.63256836 C57.74508088 24.5294079 62.29442156 26.4307018 66.84375 28.33203125 C67.76076187 28.71521515 68.67777374 29.09839905 69.62257385 29.49319458 C79.88374114 33.78342038 90.13015545 38.10847161 100.375 42.4375 C101.77014832 43.02692886 101.77014832 43.02692886 103.19348145 43.62826538 C110.74057586 46.81694296 118.28693669 50.00735501 125.83325195 53.19787598 C132.43015446 55.98690513 139.02735054 58.77523825 145.625 61.5625 C147.02174957 62.15259354 147.02174957 62.15259354 148.44671631 62.75460815 C162.11993871 68.52998045 175.8056315 74.27496621 189.5 80 C205.9931861 86.89510055 222.47121526 93.82533184 238.93554688 100.7890625 C240.79817052 101.57683844 242.66080075 102.3645988 244.5234375 103.15234375 C245.44956848 103.54404755 246.37569946 103.93575134 247.32989502 104.33932495 C253.37378452 106.89409471 259.42182732 109.43880303 265.4725647 111.97731018 C269.64437932 113.72772986 273.81504779 115.48087129 277.98565674 117.23416138 C279.97886418 118.07118581 281.97263015 118.90688158 283.96697998 119.74118042 C286.72943791 120.89694798 289.48990617 122.05735035 292.25 123.21875 C293.06554352 123.55850357 293.88108704 123.89825714 294.72134399 124.24830627 C305.35937554 128.73896524 305.35937554 128.73896524 307.11271667 132.19032288 C308.13831681 135.43799491 308.2609338 138.12541997 308.2746582 141.53100586 C308.28419022 142.83263168 308.29372223 144.13425751 308.30354309 145.47532654 C308.30328165 146.88849922 308.30234451 148.30167191 308.30078125 149.71484375 C308.3046714 151.17306133 308.30900673 152.63127779 308.31376648 154.0894928 C308.32121577 157.14164915 308.32094678 160.1936898 308.31567383 163.24584961 C308.30988004 167.14751027 308.32681383 171.04869609 308.3500185 174.95027828 C308.36478553 177.96068569 308.36562354 180.97097949 308.36250877 183.9814167 C308.36302047 185.41945906 308.36822965 186.85750802 308.37832069 188.29551506 C308.39072441 190.31017272 308.38193216 192.32492672 308.37231445 194.33959961 C308.37294388 195.48367783 308.3735733 196.62775604 308.3742218 197.8065033 C307.94113898 201.50230229 306.98648648 203.861338 305 207 C303.13987732 208.37442017 303.13987732 208.37442017 301.03295898 209.26025391 C300.24333267 209.60373871 299.45370636 209.94722351 298.64015198 210.30111694 C297.78823776 210.64776398 296.93632355 210.99441101 296.05859375 211.3515625 C294.72180824 211.92313583 294.72180824 211.92313583 293.35801697 212.5062561 C290.57942316 213.68937917 287.79052401 214.84534727 285 216 C283.3509237 216.69830541 281.70261655 217.39843069 280.05517578 218.10058594 C275.94163118 219.84797005 271.81816142 221.57036609 267.69042969 223.28393555 C263.02158612 225.22234709 258.3568068 227.17050743 253.69140625 229.1171875 C252.24509323 229.72025726 252.24509323 229.72025726 250.76956177 230.33551025 C240.33217755 234.69010199 229.91584705 239.09420549 219.5 243.5 C204.84569264 249.6964362 190.17969356 255.86395191 175.5 262 C160.86346957 268.11866483 146.23836327 274.26370093 131.625 280.4375 C130.69399475 280.83081512 129.7629895 281.22413025 128.80377197 281.62936401 C122.20210631 284.41861022 115.60098988 287.20915495 109 290 C58.26460524 311.45051395 58.26460524 311.45051395 35.76611328 320.82177734 C28.23041414 323.9619286 20.70235223 327.11118466 13.22265625 330.3828125 C12.10415283 330.8667749 10.98564941 331.3507373 9.83325195 331.84936523 C7.86860296 332.70202508 5.90939523 333.56741484 3.95776367 334.44946289 C-1.03582601 336.60275914 -4.60075967 337.80646225 -10 336 C-12.75450053 333.28294486 -13.90020891 331.62533265 -14.5146637 327.77490234 C-14.52086227 326.55754395 -14.52706085 325.34018555 -14.53344727 324.0859375 C-14.54206284 323.41048889 -14.55067841 322.73504028 -14.55955505 322.03912354 C-14.58216696 319.81735375 -14.57548657 317.59685012 -14.56640625 315.375 C-14.5716437 313.82470323 -14.57792063 312.27440966 -14.58518982 310.72412109 C-14.59558487 307.47933935 -14.59104537 304.2349964 -14.57641602 300.99023438 C-14.55922127 296.83704265 -14.5827348 292.68523353 -14.61790562 288.53219604 C-14.63989041 285.33218258 -14.63843583 282.13249949 -14.6301403 278.93243408 C-14.62932151 277.40145348 -14.63617129 275.87044844 -14.65091133 274.33953857 C-14.66838134 272.19685416 -14.6538008 270.05664826 -14.63110352 267.9140625 C-14.63014175 266.6967041 -14.62917999 265.4793457 -14.62818909 264.22509766 C-13.81780509 260.06461862 -12.25138467 258.63806764 -9 256 C-7.04649353 254.8163147 -7.04649353 254.8163147 -5.14819336 254.01806641 C-4.05954987 253.54978172 -4.05954987 253.54978172 -2.94891357 253.07203674 C-2.17042053 252.75178024 -1.39192749 252.43152374 -0.58984375 252.1015625 C0.23674744 251.75016708 1.06333862 251.39877167 1.91497803 251.03672791 C4.62602522 249.88773312 7.34402919 248.7563053 10.0625 247.625 C11.97202275 246.81993503 13.88111592 246.01385044 15.78979492 245.20678711 C20.61894648 243.16870222 25.45412447 241.14543459 30.29223633 239.12872314 C32.78733369 238.08864931 35.28156622 237.04653956 37.77539062 236.00341797 C43.57399507 233.57871565 49.37436526 231.15833498 55.1796875 228.74975586 C67.16148854 223.77807983 79.11493417 218.74083841 91.0625 213.6875 C106.84714046 207.01174993 122.64541012 200.36986995 138.46170044 193.7694397 C148.48597012 189.58568832 158.49605003 185.37184034 168.48046875 181.09375 C169.41236526 180.69503693 170.34426178 180.29632385 171.30439758 179.88552856 C175.77333745 177.97322228 180.2398892 176.05569695 184.70239258 174.12841797 C186.29108278 173.44736808 187.87986345 172.76652919 189.46875 172.0859375 C190.19156662 171.7712854 190.91438324 171.4566333 191.65910339 171.13244629 C194.60808123 169.8748101 196.75841121 169 200 169 C200 168.34 200 167.68 200 167 C199.34644531 166.90444824 198.69289063 166.80889648 198.01953125 166.71044922 C194.03947104 165.77400232 190.44337637 164.22997277 186.6875 162.6328125 C185.86327545 162.28669418 185.0390509 161.94057587 184.18984985 161.58396912 C181.45799766 160.43544062 178.7290155 159.28025077 176 158.125 C174.06706096 157.31072135 172.13395239 156.49684502 170.20068359 155.68334961 C165.13518225 153.55046179 160.07210056 151.41189146 155.00964355 149.27178955 C150.24980068 147.26041567 145.48807758 145.25350492 140.7265625 143.24609375 C128.53688341 138.10537593 116.35177562 132.95385498 104.16674805 127.80212402 C97.56984553 125.01309487 90.97260752 122.22486104 84.375 119.4375 C82.98672501 118.850896 82.98672501 118.850896 81.57040405 118.25244141 C68.45424293 112.71135649 55.32523076 107.20171898 42.18737793 101.71228027 C36.88634673 99.49581057 31.58790293 97.27316051 26.28939819 95.05065918 C21.64541735 93.10393793 16.99704071 91.16843102 12.34333801 89.24507141 C10.32866423 88.410543 8.31632424 87.57067387 6.30493164 86.72827148 C3.94222847 85.73901787 1.57580401 84.75857963 -0.79516602 83.78930664 C-2.3312854 83.14143188 -2.3312854 83.14143188 -3.8984375 82.48046875 C-5.20820557 81.93749146 -5.20820557 81.93749146 -6.54443359 81.38354492 C-9.69017315 79.6111343 -11.67381712 77.77435024 -14 75 C-14.62818909 71.77490234 -14.62818909 71.77490234 -14.63110352 68.0859375 C-14.63825882 67.41048889 -14.64541412 66.73504028 -14.65278625 66.03912354 C-14.66962922 63.81705082 -14.65030039 61.59700855 -14.62890625 59.375 C-14.62973537 57.82470534 -14.6321964 56.27441077 -14.63621521 54.72412109 C-14.63907015 51.47922215 -14.62440289 48.23501462 -14.59692383 44.99023438 C-14.56284056 40.83716268 -14.56886157 36.68532691 -14.5875864 32.53219604 C-14.59817033 29.33217116 -14.58920613 26.13243238 -14.57420158 22.93243408 C-14.56902947 21.40147756 -14.5694898 19.87049105 -14.57574654 18.33953857 C-14.58121604 16.19706298 -14.5607727 14.05633836 -14.53344727 11.9140625 C-14.52724869 10.6967041 -14.52105011 9.4793457 -14.5146637 8.22509766 C-13.90378694 4.39708877 -12.68940445 2.73917881 -10 0 C-6.74977138 -1.62511431 -3.44335811 -0.68566376 0 0 Z " fill="#586597" transform="translate(79,49)"/>
<path d="M0 0 C12.67493995 5.06997598 25.30757041 10.17887947 37.875 15.5 C39.51920095 16.19437722 41.1634904 16.88854494 42.80786133 17.58251953 C46.1995708 19.01414222 49.59091073 20.44663454 52.98193359 21.87988281 C60.10527501 24.89016158 67.23176328 27.89296405 74.3588562 30.89434814 C75.91531276 31.54981207 77.47172939 32.20537083 79.02810669 32.86102295 C91.02880954 37.91622591 103.03919436 42.94801753 115.05328369 47.97131348 C129.98359888 54.2139931 144.90052539 60.48604849 159.79345703 66.81738281 C170.0826383 71.19098146 180.38253557 75.53872475 190.6875 79.875 C191.87709824 80.37558929 191.87709824 80.37558929 193.09072876 80.8862915 C197.11685042 82.58038817 201.14311139 84.27415346 205.16943359 85.96777344 C209.95321611 87.98013061 214.736462 89.99376069 219.51953125 92.0078125 C220.30367905 92.33799881 221.08782684 92.66818512 221.89573669 93.00837708 C225.04297305 94.33364102 228.19018599 95.65896057 231.33737183 96.98434448 C239.57374345 100.45294272 247.81044643 103.92074502 256.04870605 107.38485718 C259.59462423 108.87594469 263.14033797 110.36751795 266.68603516 111.85913086 C268.38547679 112.57389316 270.0850199 113.28841426 271.78466797 114.00268555 C274.13273972 114.9894719 276.48046894 115.97706892 278.828125 116.96484375 C279.52826721 117.25882553 280.22840942 117.55280731 280.94976807 117.85569763 C285.77226785 119.88613392 285.77226785 119.88613392 288 121 C288 136.51 288 152.02 288 168 C280.40822173 165.08008528 272.87229193 162.17280026 265.3984375 158.98828125 C264.53558136 158.62284714 263.67272522 158.25741302 262.78372192 157.88090515 C260.93868608 157.09931676 259.09403813 156.31681216 257.24975586 155.53344727 C252.24917735 153.40963469 247.24552895 151.29307463 242.2421875 149.17578125 C241.21780579 148.74210236 240.19342407 148.30842346 239.13800049 147.86160278 C228.93744209 143.54537787 218.71993442 139.27009248 208.5 135 C193.86322436 128.88192582 179.23836053 122.73629791 164.625 116.5625 C163.69399475 116.16918488 162.7629895 115.77586975 161.80377197 115.37063599 C154.2575923 112.18232653 146.71215524 108.99226107 139.16674805 105.80212402 C132.56984554 103.01309487 125.97264946 100.22476175 119.375 97.4375 C117.97825043 96.84740646 117.97825043 96.84740646 116.55328369 96.24539185 C102.88006099 90.47001943 89.19434349 84.72509415 75.5 79 C61.11408889 72.98558614 46.73677739 66.95116988 32.37084961 60.88916016 C30.39684977 60.05619046 28.42273152 59.2235013 26.44848633 58.39111328 C23.70223851 57.2330371 20.95650445 56.07375183 18.2109375 54.9140625 C17.40969452 54.57629791 16.60845154 54.23853333 15.78292847 53.89053345 C10.49215982 51.65332086 5.25122518 49.33387786 0 47 C0 31.49 0 15.98 0 0 Z " fill="#977AAC" transform="translate(82,69)"/>
<path d="M0 0 C1.46771095 0.62334984 1.46771095 0.62334984 2.96507263 1.2592926 C6.08222709 2.58471387 9.19545457 3.91908496 12.30859375 5.25390625 C14.40664072 6.1483973 16.50494541 7.04228412 18.60351562 7.93554688 C21.56080627 9.19438111 24.51769178 10.4540773 27.47254944 11.71861267 C28.35373947 12.0956282 29.2349295 12.47264374 30.14282227 12.86108398 C30.91304214 13.19115952 31.68326202 13.52123505 32.4768219 13.86131287 C34.88845602 14.87632383 37.31405782 15.85142552 39.74609375 16.81640625 C39.74609375 17.47640625 39.74609375 18.13640625 39.74609375 18.81640625 C16.89820983 28.56864547 -5.95585601 38.30442356 -28.87890625 47.87890625 C-43.47433416 53.97549621 -58.05860144 60.09749266 -72.62890625 66.25390625 C-73.56009277 66.64731201 -74.4912793 67.04071777 -75.45068359 67.44604492 C-82.05216504 70.23520224 -88.65310453 73.02564075 -95.25390625 75.81640625 C-102.79519463 79.00480189 -110.33675755 82.19254616 -117.87890625 85.37890625 C-118.80841095 85.77163727 -119.73791565 86.16436829 -120.69558716 86.56900024 C-135.35864357 92.7631587 -150.03773275 98.91830264 -164.72613525 105.05209351 C-174.64902465 109.19645604 -184.56181788 113.36277367 -194.453125 117.58203125 C-195.82257011 118.16590103 -195.82257011 118.16590103 -197.21968079 118.76156616 C-201.56607479 120.61546171 -205.91084818 122.47302138 -210.25317383 124.33642578 C-211.81588622 125.00430606 -213.37862876 125.67211582 -214.94140625 126.33984375 C-215.62293259 126.63385071 -216.30445892 126.92785767 -217.00663757 127.23077393 C-222.70039228 129.65858011 -228.40702009 131.69026583 -234.25390625 133.81640625 C-234.25390625 118.30640625 -234.25390625 102.79640625 -234.25390625 86.81640625 C-218.61135806 79.99196121 -202.9540784 73.23234327 -187.19140625 66.69140625 C-173.40023189 60.96819909 -159.63203008 55.19298726 -145.87890625 49.37890625 C-143.95320894 48.56501673 -142.02750907 47.75113326 -140.10180664 46.93725586 C-137.23917675 45.72732242 -134.37656922 44.51733619 -131.51402283 43.3072052 C-122.38837516 39.44963483 -113.25976447 35.59912609 -104.12890625 31.75390625 C-103.36978943 31.43419861 -102.61067261 31.11449097 -101.82855225 30.78509521 C-92.63867728 26.91550744 -83.44442803 23.05646769 -74.24609375 19.20703125 C-73.31664444 18.817966 -72.38719513 18.42890076 -71.42958069 18.02804565 C-66.79379802 16.08797599 -62.15701463 14.15035992 -57.51831055 12.21728516 C-49.64362964 8.93277669 -41.78005787 5.63210468 -33.96875 2.19921875 C-32.76057617 1.67239502 -31.55240234 1.14557129 -30.30761719 0.6027832 C-28.14501537 -0.34410011 -25.98758142 -1.30292526 -23.83691406 -2.27661133 C-22.90588867 -2.68290771 -21.97486328 -3.0892041 -21.015625 -3.5078125 C-19.83939575 -4.03507935 -19.83939575 -4.03507935 -18.6394043 -4.57299805 C-12.15396288 -6.23302148 -5.84419692 -2.51904769 0 0 Z " fill="#C799E0" transform="translate(316.25390625,231.18359375)"/>
</svg>
