<?xml version="1.0" encoding="UTF-8"?>
<svg version="1.1" xmlns="http://www.w3.org/2000/svg" width="200" height="200">
<path d="M0 0 C66 0 132 0 200 0 C200 66 200 132 200 200 C134 200 68 200 0 200 C0 134 0 68 0 0 Z " fill="#FEFEFE" transform="translate(0,0)"/>
<path d="M0 0 C9 0 9 0 12.0625 1.0625 C14 3 14 3 14.4375 6.4375 C14.05501836 9.55199332 13.66463715 11.39900445 12 14 C12.66 14.94875 13.32 15.8975 14 16.875 C16 20 16 20 16 22 C13.75 21.875 13.75 21.875 11 21 C9.61061923 19.03852126 8.2739589 17.03833424 7 15 C6.01 14.67 5.02 14.34 4 14 C4 16.64 4 19.28 4 22 C2.68 22 1.36 22 0 22 C0 14.74 0 7.48 0 0 Z " fill="#262425" transform="translate(24,86)"/>
<path d="M0 0 C3.3 0 6.6 0 10 0 C10.33 0.99 10.66 1.98 11 3 C8.69 3 6.38 3 4 3 C4 5.31 4 7.62 4 10 C8.60742865 8.78955868 8.60742865 8.78955868 13 7 C13.309375 7.804375 13.61875 8.60875 13.9375 9.4375 C14.76335345 11.89080405 14.76335345 11.89080405 16 13 C16.375 15.875 16.375 15.875 16 19 C14.1875 20.875 14.1875 20.875 11 22 C7.37 22 3.74 22 0 22 C0 14.74 0 7.48 0 0 Z " fill="#595758" transform="translate(4,86)"/>
<path d="M0 0 C1.32 0 2.64 0 4 0 C4 7.26 4 14.52 4 22 C-0.78251668 20.80437083 -2.34772821 18.62861601 -5.25 14.9375 C-5.70890625 14.36966797 -6.1678125 13.80183594 -6.640625 13.21679688 C-7.76900148 11.8180802 -8.8856663 10.40992986 -10 9 C-10.33 13.29 -10.66 17.58 -11 22 C-11.99 22 -12.98 22 -14 22 C-14 15.07 -14 8.14 -14 1 C-9.14124708 2.21468823 -8.27681356 3.68995912 -5.25 7.5625 C-4.45078125 8.57441406 -3.6515625 9.58632812 -2.828125 10.62890625 C-2.22484375 11.41136719 -1.6215625 12.19382812 -1 13 C-0.67 8.71 -0.34 4.42 0 0 Z " fill="#3C3A3B" transform="translate(174,86)"/>
<path d="M0 0 C4.62 0 9.24 0 14 0 C14 1.32 14 2.64 14 4 C11.03 4 8.06 4 5 4 C5 5.65 5 7.3 5 9 C7.31 9 9.62 9 12 9 C12 10.32 12 11.64 12 13 C9.69 13 7.38 13 5 13 C5 14.65 5 16.3 5 18 C7.97 18 10.94 18 14 18 C14 19.32 14 20.64 14 22 C9.38 22 4.76 22 0 22 C0 14.74 0 7.48 0 0 Z " fill="#555454" transform="translate(182,86)"/>
<path d="M0 0 C4.62 0 9.24 0 14 0 C14 1.32 14 2.64 14 4 C11.03 4 8.06 4 5 4 C5 5.65 5 7.3 5 9 C7.31 9 9.62 9 12 9 C12 10.32 12 11.64 12 13 C9.36 13 6.72 13 4 13 C4 14.98 4 16.96 4 19 C7.3 19 10.6 19 14 19 C14 19.99 14 20.98 14 22 C9.38 22 4.76 22 0 22 C0 14.74 0 7.48 0 0 Z " fill="#3F3E3F" transform="translate(100,86)"/>
<path d="M0 0 C0.33 1.32 0.66 2.64 1 4 C-1.64 4 -4.28 4 -7 4 C-6.67 4.99 -6.34 5.98 -6 7 C-3.69747517 8.06902939 -1.3627974 9.07175817 1 10 C2 11 2 11 2.3125 13.8125 C2 17 2 17 0.4375 19.375 C-2.87969422 21.58646281 -5.08945759 21.42660463 -9 21 C-9.99 20.34 -10.98 19.68 -12 19 C-11.505 17.515 -11.505 17.515 -11 16 C-8.36 16.33 -5.72 16.66 -3 17 C-3 15.68 -3 14.36 -3 13 C-4.134375 12.525625 -5.26875 12.05125 -6.4375 11.5625 C-10 10 -10 10 -11 9 C-11.5794702 2.74172185 -11.5794702 2.74172185 -9.4375 0 C-6.03627009 -1.39537637 -3.5344893 -0.74768043 0 0 Z " fill="#302E2F" transform="translate(62,87)"/>
<path d="M0 0 C2.375 1 2.375 1 4 2 C4 2.99 4 3.98 4 5 C3.30132812 4.97679688 2.60265625 4.95359375 1.8828125 4.9296875 C0.51769531 4.90261719 0.51769531 4.90261719 -0.875 4.875 C-1.77992187 4.85179688 -2.68484375 4.82859375 -3.6171875 4.8046875 C-6.18806994 4.75675164 -6.18806994 4.75675164 -8 7 C-8.24287489 9.44012949 -8.24287489 9.44012949 -8.125 12.125 C-8.10695313 13.03507812 -8.08890625 13.94515625 -8.0703125 14.8828125 C-8.04710938 15.58148438 -8.02390625 16.28015625 -8 17 C-1.93949386 18.0812391 -1.93949386 18.0812391 4 17 C3.625 18.9375 3.625 18.9375 3 21 C-0.20173254 22.60086627 -3.52577059 22.49917089 -7 22 C-9.8100346 20.20636089 -11.50940468 18.98119065 -13 16 C-13.64507919 10.79328939 -13.9173523 7.18290165 -10.625 2.9375 C-6.77476311 0.09565849 -4.78769258 -0.28726155 0 0 Z " fill="#313030" transform="translate(129,86)"/>
<path d="M0 0 C5.61 0 11.22 0 17 0 C17 1.32 17 2.64 17 4 C14.69 4 12.38 4 10 4 C10 9.94 10 15.88 10 22 C8.68 22 7.36 22 6 22 C6 16.06 6 10.12 6 4 C4.02 4 2.04 4 0 4 C0 2.68 0 1.36 0 0 Z " fill="#1F1E1E" transform="translate(66,86)"/>
<path d="M0 0 C1.32 0 2.64 0 4 0 C4 6.27 4 12.54 4 19 C6.97 19 9.94 19 13 19 C13 19.99 13 20.98 13 22 C8.71 22 4.42 22 0 22 C0 14.74 0 7.48 0 0 Z " fill="#333232" transform="translate(85,86)"/>
<path d="M0 0 C3.3 0 6.6 0 10 0 C10 0.66 10 1.32 10 2 C7.69 2 5.38 2 3 2 C3 4.31 3 6.62 3 9 C7.60742865 7.78955868 7.60742865 7.78955868 12 6 C12 8.31 12 10.62 12 13 C7.545 12.01 7.545 12.01 3 11 C3 13.31 3 15.62 3 18 C5.31 18 7.62 18 10 18 C9.67 18.66 9.34 19.32 9 20 C6.03 20 3.06 20 0 20 C0 13.4 0 6.8 0 0 Z " fill="#1F1E1E" transform="translate(5,87)"/>
<path d="M0 0 C1.98 0 3.96 0 6 0 C7.92708333 6.55208333 7.92708333 6.55208333 8.4375 9.6875 C9.09147297 12.37605554 10.29776546 13.85370427 12 16 C12 16.66 12 17.32 12 18 C9.75 17.875 9.75 17.875 7 17 C5.61061923 15.03852126 4.2739589 13.03833424 3 11 C2.01 10.67 1.02 10.34 0 10 C0 12.64 0 15.28 0 18 C-1.32 17.67 -2.64 17.34 -4 17 C-3.01 17 -2.02 17 -1 17 C-1 14.36 -1 11.72 -1 9 C0.65 9 2.3 9 4 9 C4 8.34 4 7.68 4 7 C2.68 7 1.36 7 0 7 C0 4.69 0 2.38 0 0 Z " fill="#4C4A4B" transform="translate(28,90)"/>
<path d="M0 0 C2 0.9375 2 0.9375 4 3 C4.78532987 7.29038106 4.45334251 10.9346451 2.75 14.9375 C0.80470008 17.2301749 -0.12147985 18.14422374 -3 19 C-5.69107389 19.14979106 -8.29988077 19.09000397 -11 19 C-10.5 17.0625 -10.5 17.0625 -9 15 C-6.30341548 14.31209578 -3.7982981 14.18053536 -1 14 C-1.01160156 13.07316406 -1.02320313 12.14632812 -1.03515625 11.19140625 C-1.04417969 9.99386719 -1.05320313 8.79632813 -1.0625 7.5625 C-1.07410156 6.36753906 -1.08570313 5.17257813 -1.09765625 3.94140625 C-1 1 -1 1 0 0 Z " fill="#3C3B3B" transform="translate(152,89)"/>
<path d="M0 0 C0.66 0.66 1.32 1.32 2 2 C-0.68279973 4.68279973 -3.38679134 5.01457946 -7 6 C-8.2841717 7.05113249 -8.2841717 7.05113249 -8.02734375 9.43359375 C-7.96752335 11.43367569 -7.90503 13.4336795 -7.83984375 15.43359375 C-8 18 -8 18 -10 20 C-12.93766465 16.20551649 -13.70390552 12.92177512 -13.546875 8.2265625 C-12.68953925 4.73598124 -10.78821225 3.10620106 -7.94921875 1.02734375 C-5.13976552 -0.45339012 -3.09787846 -0.57634948 0 0 Z " fill="#2A2829" transform="translate(148,86)"/>
<path d="M0 0 C1.32 0 2.64 0 4 0 C4 7.26 4 14.52 4 22 C2.68 22 1.36 22 0 22 C0 14.74 0 7.48 0 0 Z " fill="#333233" transform="translate(43,86)"/>
<path d="M0 0 C1.9375 0.6875 1.9375 0.6875 4 2 C4.75 4.625 4.75 4.625 5 7 C4.01 7.66 3.02 8.32 2 9 C1.67 8.34 1.34 7.68 1 7 C0.34 7.66 -0.32 8.32 -1 9 C-4.125 9.125 -4.125 9.125 -7 9 C-7 6.69 -7 4.38 -7 2 C-4.69 2 -2.38 2 0 2 C0 1.34 0 0.68 0 0 Z " fill="#555455" transform="translate(15,87)"/>
<path d="M0 0 C5.61 0 11.22 0 17 0 C17 1.32 17 2.64 17 4 C14.69 4 12.38 4 10 4 C10 3.67 10 3.34 10 3 C11.98 3 13.96 3 16 3 C16 2.34 16 1.68 16 1 C13.03 1 10.06 1 7 1 C7 7.6 7 14.2 7 21 C7.99 21.33 8.98 21.66 10 22 C8.68 22 7.36 22 6 22 C6 16.06 6 10.12 6 4 C4.02 4 2.04 4 0 4 C0 2.68 0 1.36 0 0 Z " fill="#626061" transform="translate(66,86)"/>
<path d="M0 0 C1.32 0.33 2.64 0.66 4 1 C3.01 1.495 3.01 1.495 2 2 C2.24556641 2.75023438 2.24556641 2.75023438 2.49609375 3.515625 C3.1878911 6.9263468 3.10504665 10.28735757 3.0625 13.75 C3.05798828 14.44738281 3.05347656 15.14476563 3.04882812 15.86328125 C3.0371002 17.57555803 3.01916653 19.28779033 3 21 C2.01 21 1.02 21 0 21 C0 14.07 0 7.14 0 0 Z " fill="#201D1E" transform="translate(160,87)"/>
<path d="M0 0 C5.75 -0.125 5.75 -0.125 8 1 C8.042721 2.66611905 8.04063832 4.33382885 8 6 C7 7 7 7 3.4375 7.0625 C2.303125 7.041875 1.16875 7.02125 0 7 C0 4.69 0 2.38 0 0 Z " fill="#D9D7D8" transform="translate(8,98)"/>
<path d="M0 0 C2.9008605 0.35298081 3.89516676 0.88728296 5.921875 3.06640625 C6.52515625 3.89011719 7.1284375 4.71382813 7.75 5.5625 C8.36359375 6.38878906 8.9771875 7.21507813 9.609375 8.06640625 C10.06828125 8.70449219 10.5271875 9.34257813 11 10 C10.01 10.495 10.01 10.495 9 11 C8.67 11.66 8.34 12.32 8 13 C6.65472507 11.59466816 5.3241269 10.17527548 4 8.75 C3.2575 7.96109375 2.515 7.1721875 1.75 6.359375 C0 4 0 4 0 0 Z " fill="#2F2D2E" transform="translate(162,89)"/>
<path d="M0 0 C2.375 1 2.375 1 4 2 C4 2.99 4 3.98 4 5 C-1 5 -6 5 -11 5 C-11 4.34 -11 3.68 -11 3 C-7.29535597 0.16703692 -4.6177586 -0.49125091 0 0 Z " fill="#383738" transform="translate(129,86)"/>
<path d="M0 0 C2 0.9375 2 0.9375 4 3 C4.36475845 6.02534949 4.22893297 8.96663814 4 12 C3.01 12.495 3.01 12.495 2 13 C1.34 12.67 0.68 12.34 0 12 C-0.44921875 9.53125 -0.44921875 9.53125 -0.6875 6.5 C-0.77386719 5.4996875 -0.86023438 4.499375 -0.94921875 3.46875 C-0.96597656 2.6540625 -0.98273438 1.839375 -1 1 C-0.67 0.67 -0.34 0.34 0 0 Z " fill="#212121" transform="translate(152,89)"/>
<path d="M0 0 C4.29 0 8.58 0 13 0 C13 0.66 13 1.32 13 2 C9.7 2 6.4 2 3 2 C2.67 3.65 2.34 5.3 2 7 C1.34 7 0.68 7 0 7 C0 4.69 0 2.38 0 0 Z " fill="#222121" transform="translate(183,87)"/>
<path d="M0 0 C2.64 0 5.28 0 8 0 C8 0.66 8 1.32 8 2 C6.35 2 4.7 2 3 2 C3 4.64 3 7.28 3 10 C2.01 10 1.02 10 0 10 C0 6.7 0 3.4 0 0 Z " fill="#1E1D1E" transform="translate(24,97)"/>
<path d="M0 0 C1.98 0 3.96 0 6 0 C6 1.98 6 3.96 6 6 C4.02 6 2.04 6 0 6 C0 4.02 0 2.04 0 0 Z " fill="#F9F7F8" transform="translate(28,90)"/>
<path d="M0 0 C1.98 0 3.96 0 6 0 C6.5625 1.9375 6.5625 1.9375 7 4 C6 5 6 5 2.9375 5.0625 C1.4834375 5.0315625 1.4834375 5.0315625 0 5 C0 3.35 0 1.7 0 0 Z " fill="#F3F3F3" transform="translate(9,90)"/>
<path d="M0 0 C0.33 0 0.66 0 1 0 C1 1.65 1 3.3 1 5 C3.31 5 5.62 5 8 5 C8 6.32 8 7.64 8 9 C5.69 9 3.38 9 1 9 C1.33 8.34 1.66 7.68 2 7 C1.34 6.67 0.68 6.34 0 6 C0 4.02 0 2.04 0 0 Z " fill="#626161" transform="translate(104,90)"/>
<path d="M0 0 C0.66 0.33 1.32 0.66 2 1 C1.01 3.97 0.02 6.94 -1 10 C-1.66 10 -2.32 10 -3 10 C-3.29296875 3.9453125 -3.29296875 3.9453125 -3 2 C-2.01 1.34 -1.02 0.68 0 0 Z " fill="#272727" transform="translate(119,90)"/>
<path d="M0 0 C2.25245881 2.68841859 3.88213958 4.64641875 5 8 C2.6875 7.8125 2.6875 7.8125 0 7 C-1.8125 4.4375 -1.8125 4.4375 -3 2 C-2.01 2 -1.02 2 0 2 C0 1.34 0 0.68 0 0 Z " fill="#3B393A" transform="translate(35,100)"/>
<path d="M0 0 C1.32 0.33 2.64 0.66 4 1 C4 3.31 4 5.62 4 8 C3.01 8.33 2.02 8.66 1 9 C0.67 6.03 0.34 3.06 0 0 Z " fill="#252324" transform="translate(34,88)"/>
<path d="M0 0 C1.45792884 -0.05399736 2.91642712 -0.09279177 4.375 -0.125 C5.18710937 -0.14820312 5.99921875 -0.17140625 6.8359375 -0.1953125 C9 0 9 0 11 2 C10.67 2.66 10.34 3.32 10 4 C8.02 4 6.04 4 4 4 C4.33 3.34 4.66 2.68 5 2 C3.35 1.67 1.7 1.34 0 1 C0 0.67 0 0.34 0 0 Z " fill="#585657" transform="translate(24,86)"/>
<path d="M0 0 C2.875 -0.125 2.875 -0.125 6 0 C6.66 0.66 7.32 1.32 8 2 C6 4 6 4 3.375 4.125 C2.59125 4.08375 1.8075 4.0425 1 4 C0.67 2.68 0.34 1.36 0 0 Z " fill="#414141" transform="translate(142,86)"/>
<path d="M0 0 C0.33 0 0.66 0 1 0 C1.22174933 1.45635371 1.42698698 2.91522956 1.625 4.375 C1.74101562 5.18710938 1.85703125 5.99921875 1.9765625 6.8359375 C1.98429688 7.55007812 1.99203125 8.26421875 2 9 C1.34 9.66 0.68 10.32 0 11 C-2 8 -2 8 -1.6875 6.0625 C-1.460625 5.381875 -1.23375 4.70125 -1 4 C-0.814375 3.2575 -0.62875 2.515 -0.4375 1.75 C-0.293125 1.1725 -0.14875 0.595 0 0 Z " fill="#323131" transform="translate(138,95)"/>
<path d="M0 0 C1.32 0.99 2.64 1.98 4 3 C3.02391783 5.92824652 1.89213369 7.61426621 0 10 C-0.19412181 8.52168779 -0.38012131 7.04230684 -0.5625 5.5625 C-0.66691406 4.73878906 -0.77132812 3.91507812 -0.87890625 3.06640625 C-0.91886719 2.38449219 -0.95882812 1.70257813 -1 1 C-0.67 0.67 -0.34 0.34 0 0 Z " fill="#323232" transform="translate(152,89)"/>
<path d="M0 0 C2.31 0 4.62 0 7 0 C7 0.99 7 1.98 7 3 C4.69 3 2.38 3 0 3 C0 2.01 0 1.02 0 0 Z " fill="#302E2F" transform="translate(66,87)"/>
<path d="M0 0 C2.31 0.33 4.62 0.66 7 1 C7.33 2.32 7.66 3.64 8 5 C5.69 4.67 3.38 4.34 1 4 C1.99 3.67 2.98 3.34 4 3 C4 2.34 4 1.68 4 1 C2.68 0.67 1.36 0.34 0 0 Z " fill="#484647" transform="translate(55,86)"/>
<path d="M0 0 C0.66 0 1.32 0 2 0 C2 2.31 2 4.62 2 7 C1.01 7 0.02 7 -1 7 C-1.04254356 5.00045254 -1.04080783 2.99958364 -1 1 C-0.67 0.67 -0.34 0.34 0 0 Z " fill="#262324" transform="translate(161,101)"/>
<path d="M0 0 C1.3921875 0.0928125 1.3921875 0.0928125 2.8125 0.1875 C2.8125 1.1775 2.8125 2.1675 2.8125 3.1875 C-0.1575 3.1875 -3.1275 3.1875 -6.1875 3.1875 C-3.1875 0.1875 -3.1875 0.1875 0 0 Z " fill="#464646" transform="translate(111.1875,86.8125)"/>
<path d="M0 0 C1.04449911 3.13349732 0.93423645 3.98968256 0 7 C-1.32 5.68 -2.64 4.36 -4 3 C-2.68 2.01 -1.36 1.02 0 0 Z " fill="#262526" transform="translate(16,93)"/>
</svg>
