<?xml version="1.0" encoding="UTF-8"?>
<svg version="1.1" xmlns="http://www.w3.org/2000/svg" width="574" height="423">
<path d="M0 0 C189.42 0 378.84 0 574 0 C574 139.59 574 279.18 574 423 C384.58 423 195.16 423 0 423 C0 283.41 0 143.82 0 0 Z " fill="#FEFEFE" transform="translate(0,0)"/>
<path d="M0 0 C11.55 0 23.1 0 35 0 C38.30392479 4.6254947 40.63246953 8.08835531 43 13 C44.18554716 14.99289941 45.39531775 16.97152653 46.625 18.9375 C47.34186641 20.09069821 48.05798414 21.24436209 48.7734375 22.3984375 C49.14178711 22.99237305 49.51013672 23.58630859 49.88964844 24.19824219 C51.70135151 27.13807699 53.47675337 30.09935889 55.25 33.0625 C55.61182373 33.66666748 55.97364746 34.27083496 56.34643555 34.89331055 C57.5647833 36.9285791 58.78237883 38.96429668 60 41 C62.1446877 44.58402053 64.29082714 48.16716823 66.4375 51.75 C67.21818848 53.05529663 67.21818848 53.05529663 68.01464844 54.38696289 C68.50352539 55.20285889 68.99240234 56.01875488 69.49609375 56.859375 C69.93107178 57.58608398 70.3660498 58.31279297 70.81420898 59.06152344 C71.83644216 60.73262318 72.91336298 62.37004448 74 64 C74.66 64 75.32 64 76 64 C76.70962891 62.74509766 76.70962891 62.74509766 77.43359375 61.46484375 C81.36901442 54.52894217 85.38203563 47.64810336 89.50170898 40.82006836 C92.36782224 36.06599376 95.19189457 31.2885416 98 26.5 C101.30942573 20.86054745 104.63823695 15.23343149 108 9.625 C108.56074219 8.68817383 108.56074219 8.68817383 109.1328125 7.73242188 C110.70495594 5.11509418 112.30592707 2.5411094 114 0 C125.55 0 137.1 0 149 0 C149 40.92 149 81.84 149 124 C136.46 124 123.92 124 111 124 C110.67 106.51 110.34 89.02 110 71 C109.34 71 108.68 71 108 71 C107.76539063 71.83402344 107.53078125 72.66804688 107.2890625 73.52734375 C105.77776671 77.59868302 103.72638414 80.93292076 101.375 84.5625 C100.47356825 85.97891849 99.57253217 87.39558886 98.671875 88.8125 C98.22263672 89.51503906 97.77339844 90.21757812 97.31054688 90.94140625 C95.38617101 93.96419636 93.50383121 97.0111651 91.625 100.0625 C91.01914063 101.04347656 90.41328125 102.02445312 89.7890625 103.03515625 C87.8043693 106.32420022 85.90589804 109.66467843 84 113 C77.73 113 71.46 113 65 113 C64.67 111.68 64.34 110.36 64 109 C63.34 109 62.68 109 62 109 C61.34 107.02 60.68 105.04 60 103 C59.34 103 58.68 103 58 103 C57.484375 101.88625 56.96875 100.7725 56.4375 99.625 C54.30696076 95.34891772 51.66520216 91.60780235 48.87890625 87.73828125 C46.1426085 83.75045439 43.77070505 79.5739988 41.3828125 75.37109375 C40.20474216 73.11987804 40.20474216 73.11987804 39 72 C38.67 89.16 38.34 106.32 38 124 C25.46 124 12.92 124 0 124 C0 83.08 0 42.16 0 0 Z " fill="#020202" transform="translate(88,144)"/>
<path d="M0 0 C0.93328125 0.20496094 1.8665625 0.40992188 2.828125 0.62109375 C9.73732993 2.37012204 15.20757397 5.93665637 21 10 C21.78117187 10.54398438 22.56234375 11.08796875 23.3671875 11.6484375 C26.86742993 14.17425347 29.50060201 16.44140591 32 20 C30.95125002 22.62187494 30.35068687 23.79371361 27.875 25.25 C27.25625 25.4975 26.6375 25.745 26 26 C26 26.66 26 27.32 26 28 C25.34 28 24.68 28 24 28 C24 28.66 24 29.32 24 30 C22.28048026 31.53851766 20.49812503 33.00731759 18.6875 34.4375 C14.83532998 37.45235569 14.83532998 37.45235569 11.26953125 40.78515625 C10 42 10 42 8 42 C8 42.66 8 43.32 8 44 C4.59919013 43.38998926 2.56988255 42.13131396 -0.125 40 C-2.92897733 37.78944818 -2.92897733 37.78944818 -6 36 C-6 35.34 -6 34.68 -6 34 C-6.721875 34.04125 -7.44375 34.0825 -8.1875 34.125 C-11 34 -11 34 -13.25 33.01171875 C-19.56292342 30.68920857 -27.99764509 30.98231018 -34.375 33.125 C-41.52683027 36.44001146 -46.32007812 40.25866871 -49.30859375 47.65625 C-50.97563576 53.30723986 -51.26026112 59.02841177 -51.5625 64.875 C-51.62727539 66.050625 -51.62727539 66.050625 -51.69335938 67.25 C-51.79853351 69.16650649 -51.89967925 71.08323333 -52 73 C-51.34 73 -50.68 73 -50 73 C-49.74605469 73.61488281 -49.49210937 74.22976562 -49.23046875 74.86328125 C-48.88628906 75.67152344 -48.54210937 76.47976562 -48.1875 77.3125 C-47.85105469 78.11300781 -47.51460938 78.91351563 -47.16796875 79.73828125 C-46.01327466 81.97429421 -44.77862696 83.26214385 -43 85 C-43 85.66 -43 86.32 -43 87 C-42.154375 87.268125 -41.30875 87.53625 -40.4375 87.8125 C-37 89 -37 89 -34 90.625 C-25.88421634 94.18582268 -16.15640668 92.03910167 -8 90 C-7.67 79.77 -7.34 69.54 -7 59 C4.88 59 16.76 59 29 59 C29 76.49 29 93.98 29 112 C3.99473911 124.50263044 -23.14150136 132.88974503 -51 124 C-69.29050233 116.81303261 -82.65890065 104.68927753 -91.17822266 86.90234375 C-96.48037616 74.62831519 -97.75531887 55.8980386 -92.97265625 43.28515625 C-92.65167969 42.53105469 -92.33070313 41.77695313 -92 41 C-91.64808594 40.02933594 -91.29617187 39.05867188 -90.93359375 38.05859375 C-88.27187914 31.03974896 -84.89216455 25.65486281 -80 20 C-79.49339844 19.36191406 -78.98679687 18.72382813 -78.46484375 18.06640625 C-68.98928823 6.3167174 -52.91225454 -0.36375142 -38.26171875 -2.68359375 C-25.18501452 -3.95211236 -12.75096687 -3.04606431 0 0 Z " fill="#030303" transform="translate(337,142)"/>
<path d="M0 0 C3.23120627 2.90260903 6.32371496 5.9116661 9.3046875 9.0703125 C8.8096875 10.5553125 8.8096875 10.5553125 8.3046875 12.0703125 C7.6446875 12.0703125 6.9846875 12.0703125 6.3046875 12.0703125 C6.3046875 12.7303125 6.3046875 13.3903125 6.3046875 14.0703125 C4.75228409 15.46357204 3.13438765 16.78411378 1.4921875 18.0703125 C-4.47286151 22.83460489 -10.09560271 27.8821868 -15.6953125 33.0703125 C-18.69662437 31.67732695 -21.20588659 30.03076182 -23.8203125 28.0078125 C-26.63158513 25.83805055 -26.63158513 25.83805055 -29.6953125 24.0703125 C-29.6953125 23.4103125 -29.6953125 22.7503125 -29.6953125 22.0703125 C-39.97161125 19.62149237 -49.82338391 18.51279898 -59.6953125 23.0703125 C-65.3973748 26.81682882 -68.58561428 30.6240124 -70.6953125 37.0703125 C-71.04078125 37.97136719 -71.38625 38.87242187 -71.7421875 39.80078125 C-72.82614838 43.51912247 -73.07766982 46.97887105 -73.0703125 50.8203125 C-73.07160156 51.52043457 -73.07289063 52.22055664 -73.07421875 52.94189453 C-72.96712169 58.22737795 -71.9063776 62.46431108 -69.5703125 67.25 C-68.6953125 69.0703125 -68.6953125 69.0703125 -68.6953125 71.0703125 C-67.7053125 71.4003125 -66.7153125 71.7303125 -65.6953125 72.0703125 C-65.6953125 72.7303125 -65.6953125 73.3903125 -65.6953125 74.0703125 C-64.36318689 74.73938916 -63.02956158 75.40548048 -61.6953125 76.0703125 C-61.00695312 76.42351562 -60.31859375 76.77671875 -59.609375 77.140625 C-51.40665707 80.92003428 -42.0109574 81.80227647 -33.3203125 78.9453125 C-28.01718092 76.54410915 -23.37492712 72.88989501 -19.4453125 68.6328125 C-17.6953125 67.0703125 -17.6953125 67.0703125 -15.7578125 66.9453125 C-13.26541612 68.30480143 -11.89000727 70.12626539 -10.16015625 72.33984375 C-8.00164425 74.88976593 -5.50216414 76.96124303 -2.96484375 79.125 C-0.33645823 81.37790188 2.23466804 83.68861531 4.8046875 86.0078125 C5.660625 86.77996094 6.5165625 87.55210937 7.3984375 88.34765625 C8.0275 88.91613281 8.6565625 89.48460937 9.3046875 90.0703125 C3.33885606 98.88580225 3.33885606 98.88580225 -1.6953125 100.0703125 C-1.6953125 100.7303125 -1.6953125 101.3903125 -1.6953125 102.0703125 C-23.0043539 114.67018108 -43.65426956 118.22489337 -68.1875 112.99609375 C-74.38626029 111.36011804 -79.99546672 108.95874786 -85.6953125 106.0703125 C-85.6953125 105.4103125 -85.6953125 104.7503125 -85.6953125 104.0703125 C-86.5821875 103.8434375 -87.4690625 103.6165625 -88.3828125 103.3828125 C-92.25155873 101.84991305 -93.90199823 100.13614523 -96.6953125 97.0703125 C-97.48035156 96.38195312 -97.48035156 96.38195312 -98.28125 95.6796875 C-107.94358926 87.02293106 -114.01875515 73.81214839 -115.6953125 61.0703125 C-116.31774267 49.53316755 -116.53782142 38.09175272 -112.6953125 27.0703125 C-112.3034375 25.8328125 -111.9115625 24.5953125 -111.5078125 23.3203125 C-111.105625 22.2065625 -111.105625 22.2065625 -110.6953125 21.0703125 C-110.0353125 21.0703125 -109.3753125 21.0703125 -108.6953125 21.0703125 C-108.47359375 20.04164063 -108.251875 19.01296875 -108.0234375 17.953125 C-106.82578315 13.77814395 -104.4407957 11.00504199 -101.4453125 7.9453125 C-100.74728516 7.19701172 -100.74728516 7.19701172 -100.03515625 6.43359375 C-75.00164592 -19.97917335 -28.25918368 -23.74493709 0 0 Z " fill="#0EC2FD" transform="translate(488.6953125,153.9296875)"/>
<path d="M0 0 C0.33 0 0.66 0 1 0 C1.33 2.64 1.66 5.28 2 8 C1.34 8 0.68 8 0 8 C-4.3941146 21.33927647 -4.37869664 35.00222466 -0.65625 48.49609375 C0 51 0 51 0 54 C0.66 54 1.32 54 2 54 C2.33 55.98 2.66 57.96 3 60 C0.1480719 57.56363856 -0.89120442 55.1994457 -2.125 51.6875 C-2.45757812 50.76324219 -2.79015625 49.83898437 -3.1328125 48.88671875 C-7.09184743 35.70776913 -6.50228926 18.91388335 -2 6 C-1.4121875 4.14375 -1.4121875 4.14375 -0.8125 2.25 C-0.4103125 1.13625 -0.4103125 1.13625 0 0 Z " fill="#32BDEB" transform="translate(378,175)"/>
<path d="M0 0 C1.36125 0.12375 1.36125 0.12375 2.75 0.25 C-11.81257136 12.82552891 -30.11794 12.572507 -48.25 12.25 C-48.25 11.92 -48.25 11.59 -48.25 11.25 C-47.61199463 11.21559814 -46.97398926 11.18119629 -46.31665039 11.14575195 C-30.22106245 10.22843247 -30.22106245 10.22843247 -14.5 6.875 C-13.81687744 6.67817627 -13.13375488 6.48135254 -12.42993164 6.27856445 C-7.50941768 4.699055 -4.8782074 0.37524672 0 0 Z " fill="#31BCE8" transform="translate(481.25,256.75)"/>
<path d="M0 0 C0.33 0 0.66 0 1 0 C0.99476318 0.79583496 0.98952637 1.59166992 0.98413086 2.41162109 C0.96316487 6.06607249 0.95027793 9.72051116 0.9375 13.375 C0.92912109 14.62667969 0.92074219 15.87835938 0.91210938 17.16796875 C0.89375309 24.1800701 1.09958321 31.04232614 2 38 C-1.46011727 34.88931343 -1.61850575 32.66985737 -2 28 C-2.14896037 24.49837224 -2.18502155 21.00452918 -2.1875 17.5 C-2.19974609 16.58863281 -2.21199219 15.67726562 -2.22460938 14.73828125 C-2.23611775 9.42141046 -1.74754536 5.02850997 0 0 Z " fill="#C6F5FE" transform="translate(373,187)"/>
<path d="M0 0 C0 0.66 0 1.32 0 2 C0.763125 2.268125 1.52625 2.53625 2.3125 2.8125 C4.87380884 3.94424112 6.19692938 4.91223401 8 7 C4.70400878 6.61223633 2.9159082 5.94332944 0.125 4.0625 C-7.24992612 -0.80495124 -15.39373141 -0.54641025 -24 -1 C-16.34466424 -5.38696182 -7.81717389 -2.79422386 0 0 Z " fill="#C4F8FE" transform="translate(459,176)"/>
<path d="M0 0 C3.4005394 1.20482687 6.85031938 2.00652435 10.359375 2.8359375 C10.359375 3.1659375 10.359375 3.4959375 10.359375 3.8359375 C2.53447477 4.46192952 -4.24999733 2.16107879 -11.640625 -0.1640625 C-11.640625 -0.4940625 -11.640625 -0.8240625 -11.640625 -1.1640625 C-7.18363859 -2.74557381 -4.23249887 -1.54812878 0 0 Z " fill="#36C1EC" transform="translate(422.640625,264.1640625)"/>
<path d="M0 0 C0.66 0.33 1.32 0.66 2 1 C0.43902526 2.1063219 -1.12385327 3.20995785 -2.6875 4.3125 C-3.55761719 4.92738281 -4.42773438 5.54226562 -5.32421875 6.17578125 C-6.20722656 6.77777344 -7.09023438 7.37976563 -8 8 C-8.85207031 8.59167969 -9.70414062 9.18335938 -10.58203125 9.79296875 C-13 11 -13 11 -15.3125 10.6875 C-15.869375 10.460625 -16.42625 10.23375 -17 10 C-6.19565217 2.06521739 -6.19565217 2.06521739 0 0 Z " fill="#45C5EF" transform="translate(412,144)"/>
<path d="M0 0 C2.91863261 1.32260476 5.00166387 2.79395119 7.3125 5 C10.74496244 8.04612468 13.53348984 9.08846731 18 10 C18 11.32 18 12.64 18 14 C16.68 13.67 15.36 13.34 14 13 C14 12.34 14 11.68 14 11 C13.113125 10.773125 12.22625 10.54625 11.3125 10.3125 C6.13412032 8.26068918 3.14934267 4.47538169 0 0 Z " fill="#3DC1E7" transform="translate(389,247)"/>
<path d="M0 0 C1.17825358 0.90172468 2.34231577 1.82201502 3.5 2.75 C4.1496875 3.26046875 4.799375 3.7709375 5.46875 4.296875 C7 6 7 6 7 10 C6.34 10 5.68 10 5 10 C5 10.66 5 11.32 5 12 C2.5 13.625 2.5 13.625 0 15 C0.33 13.35 0.66 11.7 1 10 C2.65 9.67 4.3 9.34 6 9 C6 8.34 6 7.68 6 7 C5.34 7 4.68 7 4 7 C4 6.34 4 5.68 4 5 C2.68 5 1.36 5 0 5 C0 3.35 0 1.7 0 0 Z " fill="#31BFEA" transform="translate(490,156)"/>
<path d="M0 0 C7.03128878 0.43384548 13.329015 1.74321997 20 4 C20 4.33 20 4.66 20 5 C13.1414499 5.36097632 6.60163832 3.68843745 0 2 C0 1.34 0 0.68 0 0 Z " fill="#36C1EB" transform="translate(453,140)"/>
<path d="M0 0 C1.32 0.33 2.64 0.66 4 1 C1.03 4.63 -1.94 8.26 -5 12 C-5.33 11.34 -5.66 10.68 -6 10 C-5.29296875 8.125 -5.29296875 8.125 -4.1875 6 C-3.83042969 5.29875 -3.47335937 4.5975 -3.10546875 3.875 C-2 2 -2 2 0 0 Z " fill="#20C0F2" transform="translate(424,175)"/>
<path d="M0 0 C0.33 0.66 0.66 1.32 1 2 C0.0625 4.125 0.0625 4.125 -1 6 C-1.66 6 -2.32 6 -3 6 C-3.12375 6.86625 -3.2475 7.7325 -3.375 8.625 C-3.98058121 11.89513853 -4.88306035 14.87256899 -6 18 C-6.33 18 -6.66 18 -7 18 C-6.72868969 11.25793886 -5.91183308 6.57139862 -2 1 C-1.34 0.67 -0.68 0.34 0 0 Z " fill="#C4F7FE" transform="translate(381,169)"/>
<path d="M0 0 C7.14463669 1.24254551 11.61121108 5.33766753 17 10 C16.34 10.66 15.68 11.32 15 12 C15 11.34 15 10.68 15 10 C14.34 9.773125 13.68 9.54625 13 9.3125 C9.6917183 7.86512676 6.79882069 6.07304507 3.76953125 4.12109375 C1.9974569 2.95668375 1.9974569 2.95668375 0 2 C0 1.34 0 0.68 0 0 Z " fill="#39C1EB" transform="translate(473,145)"/>
<path d="M0 0 C0.33 0.66 0.66 1.32 1 2 C-0.57705005 5.0752476 -2.20309645 7.92821959 -5 10 C-8.1875 10.6875 -8.1875 10.6875 -11 11 C-7.33333333 7.33333333 -3.66666667 3.66666667 0 0 Z " fill="#C5F4FD" transform="translate(498,244)"/>
<path d="M0 0 C0.268125 0.556875 0.53625 1.11375 0.8125 1.6875 C1.99482339 4.06968511 1.99482339 4.06968511 3.5625 6.5 C4.85173947 8.7421556 5.53347928 10.48078813 6 13 C3 12 3 12 1.796875 10.0390625 C1.45140625 9.24242187 1.1059375 8.44578125 0.75 7.625 C0.39421875 6.83351562 0.0384375 6.04203125 -0.328125 5.2265625 C-1 3 -1 3 0 0 Z " fill="#BDF5FE" transform="translate(417,213)"/>
<path d="M0 0 C-3.96 3.465 -3.96 3.465 -8 7 C-8.33 6.34 -8.66 5.68 -9 5 C-9.99 4.67 -10.98 4.34 -12 4 C-11.360625 3.87625 -10.72125 3.7525 -10.0625 3.625 C-9.381875 3.41875 -8.70125 3.2125 -8 3 C-7.67 2.34 -7.34 1.68 -7 1 C-2.44155844 -1.22077922 -2.44155844 -1.22077922 0 0 Z " fill="#27BEF3" transform="translate(489,173)"/>
<path d="M0 0 C3.80635497 3.20760251 7.54563567 6.40746109 11 10 C7.65750371 9.40312566 5.53563658 8.26396123 3 6 C3 5.34 3 4.68 3 4 C2.01 3.67 1.02 3.34 0 3 C0 2.01 0 1.02 0 0 Z " fill="#39C0EA" transform="translate(481,229)"/>
<path d="M0 0 C0.99 0 1.98 0 3 0 C3 0.66 3 1.32 3 2 C3.598125 2.12375 4.19625 2.2475 4.8125 2.375 C7 3 7 3 10 5 C10 5.66 10 6.32 10 7 C6.12697862 5.85569823 2.99736561 4.76679902 0 2 C0 1.34 0 0.68 0 0 Z " fill="#BFF6FE" transform="translate(423,226)"/>
<path d="M0 0 C0.66 0.33 1.32 0.66 2 1 C0.88121617 2.17262904 -0.24523051 3.33795138 -1.375 4.5 C-2.00148438 5.1496875 -2.62796875 5.799375 -3.2734375 6.46875 C-5 8 -5 8 -7 8 C-5.50902342 4.2047869 -3.24299151 2.38957269 0 0 Z " fill="#C4C4C4" transform="translate(297,177)"/>
<path d="M0 0 C-0.33 0.99 -0.66 1.98 -1 3 C-5.455 3.495 -5.455 3.495 -10 4 C-6.86268382 1.90845588 -3.85464592 0 0 0 Z " fill="#C5F6FE" transform="translate(477,262)"/>
<path d="M0 0 C-2.25 2.0625 -2.25 2.0625 -5 4 C-7.3125 3.75 -7.3125 3.75 -9 3 C-6.38997624 -0.48003168 -4.1689578 -0.27793052 0 0 Z " fill="#27BEEE" transform="translate(484,257)"/>
<path d="M0 0 C2.31 0.33 4.62 0.66 7 1 C7 2.32 7 3.64 7 5 C5.68 4.67 4.36 4.34 3 4 C3 3.34 3 2.68 3 2 C2.01 1.67 1.02 1.34 0 1 C0 0.67 0 0.34 0 0 Z " fill="#2DC1EE" transform="translate(400,256)"/>
</svg>
